<svg xmlns="http://www.w3.org/2000/svg" version="1.1" xmlns:xlink="http://www.w3.org/1999/xlink" xmlns:svgjs="http://svgjs.com/svgjs" width="312" height="312"><svg version="1.1" xmlns="http://www.w3.org/2000/svg" width="312" height="312">
<path d="M0 0 C102.96 0 205.92 0 312 0 C312 102.96 312 205.92 312 312 C209.04 312 106.08 312 0 312 C0 209.04 0 106.08 0 0 Z " fill="#A8B4BF" transform="translate(0,0)"></path>
<path d="M0 0 C4.73517668 4.07445436 8.48383155 7.79304585 9.00390625 14.2265625 C9.09039334 15.79663589 9.17223838 17.36697028 9.25 18.9375 C9.29318359 19.73929688 9.33636719 20.54109375 9.38085938 21.3671875 C9.48701457 23.3487511 9.58776855 25.33060271 9.6875 27.3125 C6.68459214 29.17002012 4.18237715 30.66530053 0.6875 31.3125 C0.63582473 33.73517086 0.63582473 33.73517086 1.6875 36.3125 C2.8425 36.8075 3.9975 37.3025 5.1875 37.8125 C6.3425 38.3075 7.4975 38.8025 8.6875 39.3125 C10.2813702 43.93016967 10.02930171 49.27325571 10.25 54.125 C10.29318359 55.00865234 10.33636719 55.89230469 10.38085938 56.80273438 C10.48641536 58.97249623 10.58741071 61.1424791 10.6875 63.3125 C13.6575 63.9725 16.6275 64.6325 19.6875 65.3125 C19.64822388 64.20007935 19.64822388 64.20007935 19.6081543 63.06518555 C19.50432569 59.71033855 19.43921761 56.35582895 19.375 53 C19.3121582 51.24913086 19.3121582 51.24913086 19.24804688 49.46289062 C19.23193359 48.34462891 19.21582031 47.22636719 19.19921875 46.07421875 C19.17303467 45.04256592 19.14685059 44.01091309 19.11987305 42.94799805 C19.6875 40.3125 19.6875 40.3125 22.08911133 38.50317383 C23.62643455 37.79871782 25.17664091 37.11980813 26.75 36.5 C30.50030586 34.20142544 32.35092297 30.60271197 33.4375 26.4375 C33.52 25.73625 33.6025 25.035 33.6875 24.3125 C32.140625 24.7765625 32.140625 24.7765625 30.5625 25.25 C27.29285791 26.18038596 24.07030366 26.90978528 20.6875 27.3125 C18.72629033 25.35129033 19.412906 21.79105532 19.375 19.125 C19.31892578 17.15466797 19.31892578 17.15466797 19.26171875 15.14453125 C19.91346515 9.27881364 22.83147902 5.66180349 27.3125 2 C27.90289062 1.50886719 28.49328125 1.01773438 29.1015625 0.51171875 C33.64894681 -2.92682062 39.23852193 -2.17076412 44.6875 -1.6875 C50.71400343 0.07116364 55.40652805 5.14395653 58.6875 10.3125 C63.29658611 21.48524168 63.29658611 21.48524168 61.6875 26.3125 C56.6875 30.3125 56.6875 30.3125 53.6875 30.3125 C50.853258 28.895379 48.31255437 27.08155838 45.6875 25.3125 C45.0275 25.3125 44.3675 25.3125 43.6875 25.3125 C44.06788493 30.46949936 44.06788493 30.46949936 46.75 34.75 C48.94848046 37.6576677 49.32972501 39.68502753 49.14453125 43.3203125 C48.13142165 47.73643128 44.86816783 50.27073426 41.5625 53.1875 C39.6875 54.3125 39.6875 54.3125 36.6875 54.3125 C37.6775 56.7875 37.6775 56.7875 38.6875 59.3125 C45.52212034 58.15820856 50.88786718 56.69136719 55.5 51.125 C56.67023571 48.35338911 56.84682505 46.64090451 57 43.6875 C57.1875 41.3203125 57.1875 41.3203125 57.6875 39.3125 C60.5 37.5625 60.5 37.5625 63.6875 36.3125 C66.17960521 34.01181981 66.17960521 34.01181981 67.6875 31.3125 C67.51310493 28.26058622 66.87491485 27.49991485 64.6875 25.3125 C65.07628188 22.29944043 65.95206874 20.91564689 67.6875 18.3125 C73.40866385 17.52337395 77.05257823 18.31914564 81.7890625 21.6328125 C86.25247579 25.58192303 89.90666212 30.42701231 90.5 36.5 C89.53757983 41.01597156 88.24987805 42.49300583 84.6328125 45.1875 C81.97044842 46.72718043 79.75236465 47.24284399 76.6875 47.3125 C75.6975 46.9825 74.7075 46.6525 73.6875 46.3125 C75.31531784 51.06864742 75.31531784 51.06864742 78.4375 54.8125 C81.74149595 55.54672132 84.40514516 55.02865015 87.6875 54.3125 C88.6775 53.6525 89.6675 52.9925 90.6875 52.3125 C93.67802507 51.92677941 95.11379651 51.91020792 97.609375 53.66015625 C98.21265625 54.22605469 98.8159375 54.79195312 99.4375 55.375 C102.32401154 57.70905886 102.32401154 57.70905886 105.8515625 58.48828125 C107.34480146 58.28513743 108.83273253 58.03906977 110.3125 57.75390625 C112.93038586 57.26735838 115.40124336 57.15207674 118.0625 57.125 C119.28066406 57.10373047 119.28066406 57.10373047 120.5234375 57.08203125 C122.6875 57.3125 122.6875 57.3125 125.6875 59.3125 C125.6875 59.9725 125.6875 60.6325 125.6875 61.3125 C126.595 61.415625 127.5025 61.51875 128.4375 61.625 C131.74877366 62.32546174 133.27853606 62.99275695 135.6875 65.3125 C136.76667226 68.55001678 136.80175601 70.89001771 136.78515625 74.29296875 C136.78193359 75.45634766 136.77871094 76.61972656 136.77539062 77.81835938 C136.76701172 79.03330078 136.75863281 80.24824219 136.75 81.5 C136.74548828 82.72654297 136.74097656 83.95308594 136.73632812 85.21679688 C136.72453076 88.24871865 136.70659514 91.2806154 136.6875 94.3125 C133.0575 95.3025 129.4275 96.2925 125.6875 97.3125 C125.54054688 98.87097656 125.39359375 100.42945313 125.2421875 102.03515625 C123.96968829 114.36891415 122.43493581 125.19879418 116.6875 136.3125 C116.27902832 137.11204102 115.87055664 137.91158203 115.44970703 138.73535156 C101.29102928 166.13231632 81.21051425 184.85017316 51.84765625 195.35546875 C40.61924386 198.75591502 29.4018083 200.55654809 17.6875 200.3125 C17.3575 199.3225 17.0275 198.3325 16.6875 197.3125 C15.3675 197.3125 14.0475 197.3125 12.6875 197.3125 C12.3575 198.3025 12.0275 199.2925 11.6875 200.3125 C-13.80420465 200.98235501 -36.14796657 192.54924941 -56.21557617 177.08129883 C-59.76121265 174.35543991 -63.21864778 172.18807004 -67.3125 170.3125 C-66.71519644 166.96760004 -65.73332645 164.73332645 -63.3125 162.3125 C-60.39627516 161.95276832 -58.86581754 161.94474627 -56.390625 163.58984375 C-55.78734375 164.13769531 -55.1840625 164.68554688 -54.5625 165.25 C-50.24188045 168.71464775 -46.75088564 169.28245367 -41.3125 169.3125 C-40.136875 169.333125 -38.96125 169.35375 -37.75 169.375 C-36.5434375 169.3440625 -36.5434375 169.3440625 -35.3125 169.3125 C-35.07466797 170.20001953 -35.07466797 170.20001953 -34.83203125 171.10546875 C-32.47479822 179.08880494 -29.01366824 182.54748389 -21.75 186.625 C-12.90825308 190.83432246 -4.5980352 190.34314377 4.5546875 187.23828125 C8.14006059 185.68199293 10.9226178 183.84226439 12.6875 180.3125 C17.50713862 181.1309292 21.04610817 184.04739119 25.03125 186.71875 C30.81538378 190.18923027 37.53695314 190.11936084 44.05859375 188.8515625 C52.53202596 186.35505734 58.40883166 181.68806902 62.77734375 174.046875 C63.42704823 172.80881153 64.06221334 171.56307333 64.6875 170.3125 C66.65471488 169.96534443 68.63855589 169.7109293 70.625 169.5 C80.65491939 168.05147772 87.47114372 164.64578063 93.9921875 156.8046875 C96.64125471 152.91043663 98.26848152 148.78427534 99.6875 144.3125 C95.24180209 144.62325492 90.97661128 145.06833032 86.6875 146.3125 C84.60416667 149.5625 84.60416667 149.5625 83.6875 153.3125 C78.60688544 158.50858308 73.99046013 159.98761868 66.875 160.6875 C61.74587349 160.58673131 57.28342619 158.42210546 52.6875 156.3125 C53.4609375 157.8284375 53.4609375 157.8284375 54.25 159.375 C55.93423214 163.37202937 55.91887256 166.07965684 54.6875 170.3125 C51.43190303 175.29164831 48.36743097 177.5796397 42.6875 179.3125 C36.37238319 180.01417965 31.9060152 179.01387985 26.6875 175.3125 C22.98079222 171.77464442 19.8527198 168.48010105 19.57397461 163.13598633 C19.57921143 162.31380615 19.58444824 161.49162598 19.58984375 160.64453125 C19.59306641 159.75185547 19.59628906 158.85917969 19.59960938 157.93945312 C19.60798828 157.01068359 19.61636719 156.08191406 19.625 155.125 C19.62951172 154.18462891 19.63402344 153.24425781 19.63867188 152.27539062 C19.65045374 149.95436288 19.66690442 147.63346356 19.6875 145.3125 C20.72132813 145.93253906 21.75515625 146.55257812 22.8203125 147.19140625 C28.48960377 150.41939638 34.82602473 152.7972501 41.42578125 151.96875 C44.72841145 151.0005258 44.72841145 151.0005258 47.6875 149.3125 C48.47807373 147.26354125 48.47807373 147.26354125 48.6875 145.3125 C43.85898126 142.39716793 40.85830538 141.07368264 35.1875 141.4375 C29.92188537 141.64988223 27.30008493 140.37501636 23.24609375 137.11328125 C19.55832066 132.85247074 19.44724662 128.50328533 19.4921875 123.04296875 C19.4950174 122.36196609 19.49784729 121.68096344 19.50076294 120.97932434 C19.51189475 118.81936545 19.53698543 116.65983206 19.5625 114.5 C19.57253889 113.02930289 19.58166315 111.55859924 19.58984375 110.08789062 C19.61181087 106.49595714 19.6462918 102.90427015 19.6875 99.3125 C16.27107241 99.06234127 16.27107241 99.06234127 12.6875 99.3125 C10.3123157 102.87527645 10.41149956 104.54201019 10.34375 108.7734375 C10.31410156 110.04960937 10.28445312 111.32578125 10.25390625 112.640625 C10.2306825 113.98956504 10.2085575 115.33852441 10.1875 116.6875 C10.14617526 119.32083929 10.09229905 121.95286548 10.03125 124.5859375 C10.01255859 125.75560059 9.99386719 126.92526367 9.97460938 128.13037109 C9.62906427 131.96016264 8.86063395 134.96272941 6.3125 137.89453125 C1.22306631 141.74830916 -3.06348046 141.8783066 -9.3125 141.3125 C-9.003125 142.240625 -8.69375 143.16875 -8.375 144.125 C-7.6875 146.1875 -7 148.25 -6.3125 150.3125 C-4.74925768 150.19715396 -3.18690317 150.06974874 -1.625 149.9375 C-0.75488281 149.86789063 0.11523438 149.79828125 1.01171875 149.7265625 C3.81673023 149.29250233 6.07776892 148.40227781 8.6875 147.3125 C8.89224001 150.99917002 9.01559831 154.68436743 9.125 158.375 C9.18365234 159.41333984 9.24230469 160.45167969 9.30273438 161.52148438 C9.42281717 166.92521035 9.3194452 170.41161897 5.47265625 174.43359375 C0.09174365 178.91768758 -4.6252627 179.82556859 -11.51953125 179.6953125 C-17.12605058 178.92686649 -20.84200547 176.09491761 -24.375 171.8125 C-25.50864934 168.7894351 -25.34975735 167.34448303 -24.3125 164.3125 C-23.6525 163.3225 -22.9925 162.3325 -22.3125 161.3125 C-21.92750109 159.65700469 -21.58456865 157.9902567 -21.3125 156.3125 C-25.66954733 155.97263932 -25.66954733 155.97263932 -29.5 157.8125 C-34.60990815 160.53778435 -40.28721796 160.06292097 -45.81640625 158.69140625 C-50.24859026 157.00402655 -52.63726106 155.21289734 -55.25 151.25 C-58.07772624 147.02412023 -60.8007573 145.97635878 -65.65234375 144.78515625 C-68.44296319 144.24138055 -68.44296319 144.24138055 -71.8359375 144.0625 C-78.07930287 142.71561668 -80.83488307 137.34322741 -84.3125 132.3125 C-85.91716554 129.71821364 -87.19335096 127.14767756 -88.3125 124.3125 C-88.70501953 123.35730469 -88.70501953 123.35730469 -89.10546875 122.3828125 C-91.46188146 116.04322501 -92.50298392 109.42654832 -93.6640625 102.7890625 C-94.22274561 99.3535614 -94.22274561 99.3535614 -95.3125 96.3125 C-99.6025 95.9825 -103.8925 95.6525 -108.3125 95.3125 C-108.6425 95.9725 -108.9725 96.6325 -109.3125 97.3125 C-109.9725 95.6625 -110.6325 94.0125 -111.3125 92.3125 C-116.9225 91.6525 -122.5325 90.9925 -128.3125 90.3125 C-128.3125 89.9825 -128.3125 89.6525 -128.3125 89.3125 C-117.9175 88.8175 -117.9175 88.8175 -107.3125 88.3125 C-105.88389624 84.02668871 -106.34023974 79.75906019 -106.52734375 75.29296875 C-106.62078854 70.73116397 -106.24227119 67.86685978 -103.3125 64.3125 C-101.12109375 62.8359375 -101.12109375 62.8359375 -98.75 61.6875 C-95.43835392 60.06702294 -94.43215468 59.49198202 -92.3125 56.3125 C-89.6725 56.6425 -87.0325 56.9725 -84.3125 57.3125 C-84.3125 57.9725 -84.3125 58.6325 -84.3125 59.3125 C-77.0909064 59.28638212 -73.01841584 58.71435328 -67.87109375 53.5546875 C-66.3125 52.3125 -66.3125 52.3125 -63.0625 52.3125 C-60.3125 53.3125 -60.3125 53.3125 -57.3125 55.3125 C-53.96201897 55.75501636 -51.46784545 56.03648285 -48.5234375 54.19140625 C-47.05964127 52.96695111 -45.67849813 51.6451811 -44.3125 50.3125 C-44.8075 48.3325 -44.8075 48.3325 -45.3125 46.3125 C-45.98796875 46.30992188 -46.6634375 46.30734375 -47.359375 46.3046875 C-54.6521968 45.98852471 -54.6521968 45.98852471 -57.9375 42.625 C-59.77309587 38.20288268 -60.20852169 35.64133056 -58.46484375 31.109375 C-55.66888254 25.38476289 -52.27016021 21.72572945 -46.3125 19.3125 C-44.32131079 18.93003869 -42.32144267 18.58683641 -40.3125 18.3125 C-40.21453125 19.26511719 -40.1165625 20.21773437 -40.015625 21.19921875 C-39.86609375 22.45347656 -39.7165625 23.70773438 -39.5625 25 C-39.35367188 26.86205078 -39.35367188 26.86205078 -39.140625 28.76171875 C-38.23045129 32.66430321 -37.1713877 34.53647861 -34.3125 37.3125 C-30.67067665 38.20305736 -30.67067665 38.20305736 -27.3125 38.3125 C-27.29832031 39.19292969 -27.28414063 40.07335937 -27.26953125 40.98046875 C-27.05834103 48.08048308 -27.05834103 48.08048308 -24.375 54.5 C-19.75739528 57.2328681 -14.38058317 58.92507837 -9.00390625 57.8515625 C-8.44574219 57.67367187 -7.88757813 57.49578125 -7.3125 57.3125 C-7.3125 56.3225 -7.3125 55.3325 -7.3125 54.3125 C-8.22 54.27125 -9.1275 54.23 -10.0625 54.1875 C-13.3125 53.3125 -13.3125 53.3125 -15.6875 50.6875 C-17.63196923 46.64898698 -17.97855882 44.75289213 -17.3125 40.3125 C-16.09420091 37.70419523 -14.77043041 35.22215972 -13.30859375 32.7421875 C-12.10997814 29.81850551 -12.42633297 28.29469084 -13.3125 25.3125 C-17.64516589 25.78442443 -17.64516589 25.78442443 -21.375 27.875 C-23.3125 29.3125 -23.3125 29.3125 -25.875 29.6875 C-28.83040657 29.23282207 -29.51775314 28.66300654 -31.3125 26.3125 C-32.37668734 20.37797782 -31.80918914 14.4752919 -28.78125 9.23046875 C-21.26740226 -0.58149732 -11.77960352 -6.00093009 0 0 Z " fill="#F4F7F9" transform="translate(142.3125,69.6875)"></path>
<path d="M0 0 C16.07430174 5.08913219 29.7349029 1.20771913 45.52587891 -3.00390625 C63.76535956 -7.80106442 83.42699667 -6.31846952 102 -4.375 C103.69974976 -4.19868042 103.69974976 -4.19868042 105.43383789 -4.01879883 C125.06036111 -1.75213889 125.06036111 -1.75213889 129.125 2.3125 C129.27007695 5.05735593 129.31152423 7.69730543 129.25 10.4375 C129.24097656 11.19160156 129.23195313 11.94570312 129.22265625 12.72265625 C129.1990687 14.58607254 129.16319719 16.44932593 129.125 18.3125 C128.0525 18.68375 126.98 19.055 125.875 19.4375 C121.93519253 21.18394604 119.74989902 23.30615051 118.125 27.3125 C116.64254076 32.66687153 115.63421128 38.11868961 114.58984375 43.57226562 C112.61352083 53.03350216 108.98252791 60.84650213 101.3203125 67.03125 C96.64250869 69.76135614 91.33873036 70.98350991 86.125 72.3125 C85.1669043 72.57401855 85.1669043 72.57401855 84.18945312 72.84082031 C71.81860662 75.667272 59.00497499 73.57168561 48.125 67.3125 C39.87890868 61.30463346 34.81278077 54.61571054 31.0625 45.125 C30.67408936 44.14696411 30.67408936 44.14696411 30.27783203 43.14916992 C28.42486791 38.37764117 27.02368196 33.59541273 25.9609375 28.58203125 C24.87854199 25.64337802 23.5878559 24.23430672 21.125 22.3125 C18.72277376 21.64849835 18.72277376 21.64849835 16.1875 21.75 C15.35347656 21.72808594 14.51945312 21.70617187 13.66015625 21.68359375 C9.94496898 22.60523497 8.48371891 24.34404423 6.125 27.3125 C4.95897422 30.54760147 4.95897422 30.54760147 4.3125 34.125 C1.49253098 46.29834663 -4.32403152 60.87863333 -15.25390625 67.82421875 C-23.21072198 72.06380454 -30.82333633 73.67342587 -39.75 73.5625 C-40.54011475 73.55573242 -41.33022949 73.54896484 -42.14428711 73.54199219 C-52.96702827 73.35065582 -64.11782251 71.43770974 -72.46875 63.921875 C-80.44678987 54.7914516 -83.35031991 44.14417266 -85.24804688 32.51953125 C-86.1614133 27.45206733 -87.00427351 23.98241957 -90.875 20.3125 C-91.77605469 19.89355469 -92.67710938 19.47460938 -93.60546875 19.04296875 C-95.875 17.3125 -95.875 17.3125 -96.27197266 15.49072266 C-96.3682046 13.18269978 -96.31049424 10.93161503 -96.1875 8.625 C-96.16494141 7.82771484 -96.14238281 7.03042969 -96.11914062 6.20898438 C-96.06026944 4.24268666 -95.97058755 2.27735509 -95.875 0.3125 C-87.5399634 -2.29586612 -79.36905144 -3.5560493 -70.6875 -4.375 C-68.71716797 -4.56280029 -68.71716797 -4.56280029 -66.70703125 -4.75439453 C-44.33558226 -6.79158196 -21.57332329 -6.99352249 0 0 Z " fill="#06090C" transform="translate(141.875,138.6875)"></path>
<path d="M0 0 C0.26016848 7.18065017 -0.66550815 13.61623871 -2.1875 20.625 C-2.41598633 21.68460938 -2.64447266 22.74421875 -2.87988281 23.8359375 C-10.14647648 56.62056919 -27.80757187 81.31041456 -55.99609375 99.5390625 C-75.0071725 111.46593431 -95.46844022 117.8629108 -118 117 C-117.95359375 117.68707031 -117.9071875 118.37414062 -117.859375 119.08203125 C-117.82328125 119.98308594 -117.7871875 120.88414062 -117.75 121.8125 C-117.70359375 122.70582031 -117.6571875 123.59914063 -117.609375 124.51953125 C-118 127 -118 127 -119.8515625 128.83984375 C-122 130 -122 130 -124.625 129.75 C-127 129 -127 129 -129 128 C-130.28317892 124.15046324 -130.06643637 121.05261865 -130 117 C-130.68320313 117.05800781 -131.36640625 117.11601562 -132.0703125 117.17578125 C-149.16956104 117.94109289 -165.87617265 112.61277856 -181 105 C-182.02609375 104.49339844 -183.0521875 103.98679687 -184.109375 103.46484375 C-193.68409879 98.50556002 -204.21634231 91.95914423 -208.375 81.5625 C-208.58125 80.716875 -208.7875 79.87125 -209 79 C-212.81324805 81.70941309 -214.65868859 83.51671255 -216 88 C-216.21142024 91.41391694 -216.31831562 94.78655325 -216.30273438 98.20507812 C-216.41211174 101.9627198 -216.6765549 103.65671841 -219.29296875 106.43359375 C-222 108 -222 108 -226 109 C-226.495 101.575 -226.495 101.575 -227 94 C-228.76495539 97.52991078 -228.24672651 101.96267474 -228.25390625 105.8828125 C-228.39063202 109.75431065 -228.87510783 112.37362756 -231.234375 115.515625 C-234 118 -234 118 -239 118 C-239.33 113.05 -239.66 108.1 -240 103 C-242.27687877 105.27687877 -241.45734368 110.62322999 -241.62109375 113.703125 C-242.11544108 118.00445639 -242.91720946 120.91720946 -246 124 C-249.5625 124.1875 -249.5625 124.1875 -253 124 C-254 123 -254 123 -254.02172852 121.14233398 C-253.97459717 120.35157471 -253.92746582 119.56081543 -253.87890625 118.74609375 C-253.83056641 117.89208984 -253.78222656 117.03808594 -253.73242188 116.15820312 C-253.67634766 115.26037109 -253.62027344 114.36253906 -253.5625 113.4375 C-253.51029297 112.53580078 -253.45808594 111.63410156 -253.40429688 110.70507812 C-253.27419751 108.4697345 -253.13922064 106.2347911 -253 104 C-254.26457031 103.92652344 -254.26457031 103.92652344 -255.5546875 103.8515625 C-256.65039062 103.77679688 -257.74609375 103.70203125 -258.875 103.625 C-259.96554687 103.55539062 -261.05609375 103.48578125 -262.1796875 103.4140625 C-265 103 -265 103 -267 101 C-266.85156365 98.1054912 -266.46747033 96.52174129 -264.51953125 94.34765625 C-260.6910366 92.29985679 -257.07620729 92.72093045 -252.8125 92.875 C-249.8722524 92.95243487 -246.94196756 92.99409836 -244 93 C-243.67 92.67 -243.34 92.34 -243 92 C-246.96 91.67 -250.92 91.34 -255 91 C-254 86 -254 86 -252.9375 84.1875 C-247.7100658 80.98358872 -238.84661608 83.32907684 -233 84 C-233.71027344 83.82984375 -234.42054688 83.6596875 -235.15234375 83.484375 C-236.53099609 83.12085938 -236.53099609 83.12085938 -237.9375 82.75 C-238.85402344 82.51796875 -239.77054688 82.2859375 -240.71484375 82.046875 C-243 81 -243 81 -244.00390625 79.078125 C-244 77 -244 77 -242.75805664 75.37084961 C-240.54974058 73.64890895 -239.61833844 73.73474862 -236.8671875 73.98828125 C-235.66400879 74.06477905 -235.66400879 74.06477905 -234.43652344 74.14282227 C-233.5912207 74.19881592 -232.74591797 74.25480957 -231.875 74.3125 C-225.14716793 74.6197647 -225.14716793 74.6197647 -218.9921875 72.265625 C-216.7453697 70.11114731 -216.7453697 70.11114731 -214.80078125 67.84765625 C-212.79333951 65.78796006 -211.74940623 65.34940847 -208.9375 65 C-207.968125 65 -206.99875 65 -206 65 C-206.8604139 60.66770285 -206.8604139 60.66770285 -209 57 C-209.04080783 55.00041636 -209.04254356 52.99954746 -209 51 C-203.51038453 50.66390109 -199.82702374 51.31832015 -195 54 C-192.99526836 55.8936382 -191.60308283 57.71682143 -190 60 C-190 60.66 -190 61.32 -190 62 C-183.36848657 64.75085002 -177.18016418 65.90757275 -170 65 C-167.25427272 63.52012037 -167.25427272 63.52012037 -165 62 C-161.6875 62.3125 -161.6875 62.3125 -159 63 C-158.7228968 66.23287066 -158.81232044 67.6997127 -160.5625 70.5 C-162.2076963 72.88057463 -162.2076963 72.88057463 -162 75.5 C-160.43095496 79.4226126 -157.74442723 81.92879522 -154.16796875 84.125 C-148.9619618 86.22616317 -142.81336553 85.63803602 -137.625 83.8125 C-134.4733767 81.63637915 -132.34646599 80.08192548 -130 77 C-129.38241376 73.21166303 -129.52841583 69.51286242 -129.6875 65.6875 C-129.71005859 64.66076172 -129.73261719 63.63402344 -129.75585938 62.57617188 C-129.81462425 60.0492821 -129.89672151 57.52539745 -130 55 C-130.9135022 55.48460693 -130.9135022 55.48460693 -131.84545898 55.97900391 C-134.38702836 57.1834054 -136.25957305 57.33272358 -139.0625 57.375 C-140.34833984 57.41753906 -140.34833984 57.41753906 -141.66015625 57.4609375 C-144 57 -144 57 -145.80859375 55.2890625 C-147.18419979 52.64609482 -147.24490435 50.93885219 -147 48 C-146.03900391 47.97873047 -146.03900391 47.97873047 -145.05859375 47.95703125 C-138.49585024 47.59515121 -134.88353875 46.46791843 -130 42 C-128.69204931 38.57436948 -128.8436415 35.03750621 -128.7890625 31.40625 C-128.76070312 30.12878906 -128.73234375 28.85132813 -128.703125 27.53515625 C-128.66183006 25.51416219 -128.62491439 23.49341633 -128.59863281 21.47216797 C-128.5709844 19.5124679 -128.52401325 17.5530706 -128.4765625 15.59375 C-128.45674316 14.42521484 -128.43692383 13.25667969 -128.41650391 12.05273438 C-127.97036623 8.7828015 -127.213325 7.3904792 -125 5 C-122.6568787 5.25561323 -120.32156597 5.59270772 -118 6 C-116.58364566 8.83270867 -116.94183204 11.16543244 -117.0078125 14.328125 C-117.03294922 16.24044922 -117.03294922 16.24044922 -117.05859375 18.19140625 C-117.08943849 20.21687757 -117.12481409 22.2419158 -117.17138672 24.26708984 C-117.21403684 26.22468228 -117.23612337 28.18268814 -117.2578125 30.140625 C-117.2798877 31.31141602 -117.30196289 32.48220703 -117.32470703 33.68847656 C-116.83260751 38.70715171 -115.13432402 41.92239218 -111.5 45.375 C-107.26743963 47.34011732 -104.34449396 47.06577299 -99.765625 46.890625 C-95.68571222 47.05197748 -92.10962876 48.30609701 -89 51 C-88.2890625 53.140625 -88.2890625 53.140625 -88 55 C-91.70595455 58.54482609 -95.9624458 59.84053785 -101 60 C-107.01852374 58.81442754 -112.73580326 57.58271384 -117 53 C-117.10867663 56.02181414 -117.18762754 59.03966327 -117.25 62.0625 C-117.30027344 63.33383789 -117.30027344 63.33383789 -117.3515625 64.63085938 C-117.4447288 70.66337748 -116.49511607 74.05444271 -113 79 C-108.69209365 83.08698807 -105.082889 84.79512567 -99.1875 85.375 C-94.49878129 85.2331862 -90.79401413 83.72799688 -87 81 C-84.50922645 78.07334108 -83.1687814 76.18146979 -82.625 72.375 C-83.01858963 69.88226569 -83.82074467 68.21110374 -85 66 C-85 65.01 -85 64.02 -85 63 C-79.42253521 63.76056338 -79.42253521 63.76056338 -77.125 65.0625 C-72.42918311 67.13418392 -67.5145081 66.37659259 -62.8125 64.75 C-58.8188269 63.05856198 -55.11522868 61.29605904 -53.13671875 57.22265625 C-52.88535156 56.59230469 -52.63398438 55.96195313 -52.375 55.3125 C-51.92125 54.219375 -51.4675 53.12625 -51 52 C-47.98509443 50.99503148 -45.95818308 50.89664697 -42.8125 50.9375 C-41.91144531 50.94652344 -41.01039063 50.95554688 -40.08203125 50.96484375 C-39.39496094 50.97644531 -38.70789063 50.98804688 -38 51 C-38.39548838 58.71202347 -43.29866235 64.64542521 -48.6875 69.8125 C-55.90245344 75.7331679 -63.84270612 77.60047829 -73 77 C-73.185625 77.825 -73.37125 78.65 -73.5625 79.5 C-76.5935112 86.87985336 -81.8538182 91.39688875 -88.7890625 95.08984375 C-95.36478396 97.79681036 -103.37234821 98.13920277 -110.125 95.875 C-113.93774648 94.26637674 -117.0448052 91.90869839 -120.23828125 89.3046875 C-122.07692346 87.801873 -122.07692346 87.801873 -125 87 C-125.185625 87.5775 -125.37125 88.155 -125.5625 88.75 C-128.22880486 92.92334673 -132.73417105 94.50359649 -137.1875 96.25 C-147.99943124 98.37693729 -155.67128962 96.98285073 -165 91 C-168.49555275 88.07514974 -171.03878751 85.12886839 -173 81 C-173.04655046 79.33398354 -173.05275134 77.66583165 -173 76 C-173.7734375 76.11859375 -174.546875 76.2371875 -175.34375 76.359375 C-182.32093455 77.22288794 -187.2278102 77.28393845 -193 73 C-193.76570313 72.19369141 -193.76570313 72.19369141 -194.546875 71.37109375 C-195.99440861 69.71503166 -195.99440861 69.71503166 -198.6875 69.8125 C-199.450625 69.874375 -200.21375 69.93625 -201 70 C-202.32 72.31 -203.64 74.62 -205 77 C-204.15308594 77.22429687 -203.30617187 77.44859375 -202.43359375 77.6796875 C-198.34800632 79.25070974 -195.47696881 81.44446972 -192.0625 84.125 C-181.63334201 92.02481437 -170.53797753 98.0937912 -158 102 C-156.82050781 102.41185547 -156.82050781 102.41185547 -155.6171875 102.83203125 C-146.07008901 105.86974441 -135.93308157 106.2295326 -126 107 C-125.67 105.68 -125.34 104.36 -125 103 C-123.35 103.33 -121.7 103.66 -120 104 C-120 104.99 -120 105.98 -120 107 C-88.37638761 103.63346669 -58.41917767 94.09878323 -37 69 C-32.1983261 62.63907285 -28.57188782 55.50694378 -24.8125 48.5 C-24.39613281 47.72922119 -23.97976563 46.95844238 -23.55078125 46.16430664 C-18.26407353 36.09816945 -15.42737911 26.62226525 -14.25 15.3125 C-14.12496094 14.21744141 -13.99992188 13.12238281 -13.87109375 11.99414062 C-13.56867436 9.33052371 -13.27852495 6.66620257 -13 4 C-1 0 -1 0 0 0 Z " fill="#070B10" transform="translate(280,163)"></path>
<path d="M0 0 C1.5778125 0.4021875 1.5778125 0.4021875 3.1875 0.8125 C4.19676479 4.96876368 4.28989579 8.85615094 4.25 13.125 C4.24097656 14.37925781 4.23195313 15.63351563 4.22265625 16.92578125 C4.20525391 18.35470703 4.20525391 18.35470703 4.1875 19.8125 C7.38760388 21.6258922 10.32033843 22.33463974 13.9375 22.9375 C14.92234375 23.10507812 15.9071875 23.27265625 16.921875 23.4453125 C17.66953125 23.56648438 18.4171875 23.68765625 19.1875 23.8125 C19.5 26.125 19.5 26.125 19.1875 28.8125 C15.55488083 32.27965826 11.7421419 32.1307466 6.99414062 32.07617188 C6.12982422 32.05103516 5.26550781 32.02589844 4.375 32 C3.04952148 31.97969727 3.04952148 31.97969727 1.69726562 31.95898438 C-0.47292023 31.92379217 -2.64279033 31.86998985 -4.8125 31.8125 C-5.1425 32.4725 -5.4725 33.1325 -5.8125 33.8125 C-1.5225 34.1425 2.7675 34.4725 7.1875 34.8125 C7.5175 35.8025 7.8475 36.7925 8.1875 37.8125 C5.91653818 40.62073815 4.80446833 41.72561428 1.1640625 42.23828125 C0.05804688 42.20089844 -1.04796875 42.16351563 -2.1875 42.125 C-3.28835938 42.10050781 -4.38921875 42.07601562 -5.5234375 42.05078125 C-8.67430961 41.82251142 -11.70822743 41.38927572 -14.8125 40.8125 C-15.1425 41.4725 -15.4725 42.1325 -15.8125 42.8125 C-15.11382812 42.87308594 -14.41515625 42.93367188 -13.6953125 42.99609375 C-12.78523437 43.07988281 -11.87515625 43.16367188 -10.9375 43.25 C-10.03257812 43.33121094 -9.12765625 43.41242188 -8.1953125 43.49609375 C-5.8125 43.8125 -5.8125 43.8125 -3.8125 44.8125 C-4.42527612 47.77425123 -5.06622522 49.19308783 -6.8125 51.8125 C-8.31263097 51.66802017 -9.81259702 51.52182785 -11.3125 51.375 C-12.22386719 51.29121094 -13.13523437 51.20742187 -14.07421875 51.12109375 C-16.8125 50.8125 -16.8125 50.8125 -19.08203125 50.34765625 C-21.38081613 49.82822347 -21.38081613 49.82822347 -24.8125 49.8125 C-27.29712155 52.04622783 -27.29712155 52.04622783 -29.8125 54.8125 C-31.64341391 56.42266543 -33.49785394 58.00647907 -35.375 59.5625 C-36.76912109 60.73039062 -36.76912109 60.73039062 -38.19140625 61.921875 C-40.55294356 63.62527896 -41.9767331 64.41215644 -44.8125 64.8125 C-44.379375 65.68261719 -44.379375 65.68261719 -43.9375 66.5703125 C-41.18785679 72.35602009 -39.70898429 76.50195286 -41.8125 82.8125 C-40.513125 83.555 -40.513125 83.555 -39.1875 84.3125 C-35.18055868 86.98379421 -32.13189165 90.60140595 -29.8125 94.8125 C-29.8125 96.1325 -29.8125 97.4525 -29.8125 98.8125 C-32.78713337 100.29981668 -34.48528843 100.2438052 -37.8125 99.8125 C-39.94744391 98.37945546 -41.85860881 96.82698056 -43.78515625 95.125 C-46.33195071 93.47620821 -47.83059027 93.45797327 -50.8125 93.8125 C-51.9571875 94.5859375 -51.9571875 94.5859375 -53.125 95.375 C-56.41968612 97.13727397 -58.32461835 97.07920081 -61.94140625 96.45703125 C-65.03717091 95.3906405 -66.25580778 93.60157356 -67.8125 90.8125 C-67.8125 89.4925 -67.8125 88.1725 -67.8125 86.8125 C-66.78125 86.895 -65.75 86.9775 -64.6875 87.0625 C-59.37228837 86.71958312 -56.50604478 84.50604478 -52.8125 80.8125 C-51.90622159 75.17343436 -52.77472239 72.26860289 -55.9375 67.5 C-60.02553281 62.15852226 -63.55539591 60.03414608 -70.1875 59.125 C-71.981875 58.9703125 -71.981875 58.9703125 -73.8125 58.8125 C-75.17368461 61.05445113 -75.87388028 62.29076762 -75.5625 64.9375 C-74.87541767 67.0121952 -74.87541767 67.0121952 -72.8125 68.8125 C-72.90866854 72.37073605 -73.79011889 73.78514531 -76.0625 76.5625 C-78.83461769 78.8305963 -80.30303006 79.51168829 -83.8125 79.8125 C-83.76609375 80.39257812 -83.7196875 80.97265625 -83.671875 81.5703125 C-83.41072305 87.22238674 -83.91754143 90.40504688 -87.8125 94.8125 C-92.17810662 98.46742648 -97.09983037 100.51544118 -102.8125 100.8125 C-103.4725 100.1525 -104.1325 99.4925 -104.8125 98.8125 C-104.8125 97.4925 -104.8125 96.1725 -104.8125 94.8125 C-103.74 94.255625 -102.6675 93.69875 -101.5625 93.125 C-98.12416784 91.12337459 -95.81904051 89.3440113 -93.8125 85.8125 C-93.05768874 80.61711531 -93.05768874 80.61711531 -94.94140625 75.91796875 C-95.84304178 74.7389069 -96.76204075 73.57288798 -97.69921875 72.421875 C-99.2393674 70.19541449 -99.21064757 68.44027395 -98.8125 65.8125 C-94.8125 65.8125 -94.8125 65.8125 -91.875 67.875 C-89.04648914 70.06084861 -89.04648914 70.06084861 -86.1875 69.75 C-83.67751003 68.75921449 -81.93093967 67.46166506 -79.8125 65.8125 C-81.9554085 54.87067935 -84.50940322 47.43906777 -93.8125 40.8125 C-99.80210802 38.81596399 -106.53397055 38.73537699 -112.25 41.4375 C-115.59542787 44.53814046 -118.75038349 47.68826698 -120.8125 51.8125 C-120.8841735 54.36407655 -120.90558442 56.88722971 -120.875 59.4375 C-120.87048828 60.14390625 -120.86597656 60.8503125 -120.86132812 61.578125 C-120.84953875 63.32295275 -120.83160324 65.067737 -120.8125 66.8125 C-116.99436553 66.53709296 -116.99436553 66.53709296 -113.8125 64.8125 C-111.81291636 64.77169217 -109.81204746 64.76995644 -107.8125 64.8125 C-107.14737937 69.20229616 -108.60156754 71.55439669 -110.9375 75.06640625 C-112.8125 76.8125 -112.8125 76.8125 -120.8125 80.8125 C-121.1425 89.0625 -121.4725 97.3125 -121.8125 105.8125 C-130.8125 104.8125 -130.8125 104.8125 -131.8125 103.8125 C-131.97014405 102.03380274 -132.06350677 100.24931524 -132.12890625 98.46484375 C-132.17080078 97.38525391 -132.21269531 96.30566406 -132.25585938 95.19335938 C-132.29517578 94.05705078 -132.33449219 92.92074219 -132.375 91.75 C-132.41818359 90.60982422 -132.46136719 89.46964844 -132.50585938 88.29492188 C-132.61232839 85.46757805 -132.71434207 82.64014262 -132.8125 79.8125 C-133.76253906 79.68488281 -134.71257812 79.55726562 -135.69140625 79.42578125 C-138.8125 78.8125 -138.8125 78.8125 -140.75 77 C-141.8125 74.8125 -141.8125 74.8125 -141.6328125 72.78515625 C-140.8125 70.8125 -140.8125 70.8125 -138.96484375 69.765625 C-138.23394531 69.53359375 -137.50304687 69.3015625 -136.75 69.0625 C-136.01652344 68.82015625 -135.28304687 68.5778125 -134.52734375 68.328125 C-133.96144531 68.15796875 -133.39554687 67.9878125 -132.8125 67.8125 C-132.87286952 65.10190855 -132.9600191 62.39656023 -133.0625 59.6875 C-133.07667969 58.92695312 -133.09085937 58.16640625 -133.10546875 57.3828125 C-133.38498706 50.89798769 -135.40755069 47.09087303 -140.1875 42.5625 C-144.82467407 39.47105062 -149.25520939 38.14562513 -154.8125 38.8125 C-161.417267 40.94655559 -165.91431069 45.15485768 -169.8125 50.8125 C-171.61523894 54.47767121 -172.08471214 57.42962596 -172.0625 61.5 C-172.06765625 62.45261719 -172.0728125 63.40523437 -172.078125 64.38671875 C-172.04877741 66.99351364 -172.04877741 66.99351364 -169.8125 68.8125 C-166.15569515 68.60934418 -163.63819843 68.44391644 -160.6875 66.1875 C-158.8125 64.8125 -158.8125 64.8125 -156.0625 65.125 C-155.32 65.351875 -154.5775 65.57875 -153.8125 65.8125 C-152.92633297 68.79469084 -152.60997814 70.31850551 -153.80859375 73.2421875 C-154.28425781 74.04914063 -154.75992188 74.85609375 -155.25 75.6875 C-157.53192603 79.96531677 -158.58613334 82.88058746 -157.8125 87.8125 C-156.9280391 90.75957246 -156.9280391 90.75957246 -154.8125 92.8125 C-151.21330577 93.70842083 -151.21330577 93.70842083 -147.8125 93.8125 C-148.1425 95.4625 -148.4725 97.1125 -148.8125 98.8125 C-153.67729885 100.37417908 -158.02295944 99.27726241 -162.8125 97.8125 C-165.64415629 95.96325507 -167.30987497 94.81775005 -168.8125 91.8125 C-168.88342842 89.6052077 -168.89665025 87.39582548 -168.875 85.1875 C-168.86597656 83.99898438 -168.85695312 82.81046875 -168.84765625 81.5859375 C-168.83605469 80.67070313 -168.82445312 79.75546875 -168.8125 78.8125 C-169.864375 78.93625 -170.91625 79.06 -172 79.1875 C-175.8125 78.8125 -175.8125 78.8125 -178.6875 76.6875 C-182.38282717 71.69577936 -181.72294544 64.75566594 -181.8125 58.8125 C-189.32615874 61.42404352 -194.31534356 63.76538439 -198.625 70.75 C-200.33764616 75.1668243 -200.33769024 78.12438852 -198.9375 82.625 C-195.93611936 85.71465654 -193.27187051 85.45753959 -189.08984375 85.57421875 C-186.8125 85.8125 -186.8125 85.8125 -184.8125 87.8125 C-184.8125 91.11630502 -186.13574368 92.15113623 -188.4375 94.5625 C-191.0027642 96.55565492 -191.973562 96.83510519 -195.375 97.3125 C-198.8125 96.8125 -198.8125 96.8125 -201.375 95.25 C-203.77154831 93.55850749 -203.77154831 93.55850749 -206.8125 93.8125 C-210.00394128 94.59618524 -210.00394128 94.59618524 -212.0625 97.375 C-215.7153468 100.61275057 -218.08735882 100.22911305 -222.80078125 99.98828125 C-223.46464844 99.93027344 -224.12851563 99.87226563 -224.8125 99.8125 C-224.334171 94.79004554 -222.97560458 91.7450084 -219.8125 87.8125 C-214.54934211 83.8125 -214.54934211 83.8125 -211.8125 83.8125 C-211.88210937 83.08546875 -211.95171875 82.3584375 -212.0234375 81.609375 C-212.53791209 72.05484691 -209.92648639 65.24883916 -204.171875 57.64453125 C-199.86259942 52.92245123 -194.17831645 49.17897364 -187.671875 48.6328125 C-186.99640625 48.60960937 -186.3209375 48.58640625 -185.625 48.5625 C-181.41516115 47.73433498 -181.14208356 47.46524291 -178.8125 44.1875 C-178.33296875 43.46691406 -177.8534375 42.74632812 -177.359375 42.00390625 C-172.70608738 35.41174879 -165.51678374 30.16629867 -157.8125 27.8125 C-148.49284155 26.57591102 -140.57132389 27.27048293 -132.8125 32.8125 C-131.00614012 34.39627525 -129.43689736 36.03581539 -127.8125 37.8125 C-124.79981779 37.8125 -123.81776607 36.05975203 -121.6875 34 C-115.66657015 28.56577418 -110.33617082 26.21337088 -102.17578125 26.5234375 C-90.27605321 27.97894143 -83.21991716 33.75342901 -75.8125 42.8125 C-73.8125 45.8125 -73.8125 45.8125 -73.8125 48.8125 C-72.69875 48.73 -71.585 48.6475 -70.4375 48.5625 C-62.56687807 48.5625 -56.12257019 52.45946607 -49.8125 56.8125 C-49.09964844 56.16023438 -48.38679687 55.50796875 -47.65234375 54.8359375 C-46.69457031 53.96195313 -45.73679688 53.08796875 -44.75 52.1875 C-43.30195701 50.86459652 -41.8542752 49.54122165 -40.41821289 48.20532227 C-38.8125 46.8125 -38.8125 46.8125 -36.90795898 45.49584961 C-34.05527128 43.43713029 -32.12843125 41.99257774 -31.1965332 38.51171875 C-30.97228018 35.86021187 -30.94028948 33.28500718 -31 30.625 C-31.00127603 28.83983233 -30.99508989 27.05463949 -30.98046875 25.26953125 C-30.99360107 24.48553955 -31.0067334 23.70154785 -31.02026367 22.89379883 C-30.8125 20.8125 -30.8125 20.8125 -28.8125 17.8125 C-26.8325 17.8125 -24.8525 17.8125 -22.8125 17.8125 C-22.8125 23.0925 -22.8125 28.3725 -22.8125 33.8125 C-21.8225 33.8125 -20.8325 33.8125 -19.8125 33.8125 C-19.9775 32.8225 -20.1425 31.8325 -20.3125 30.8125 C-21.22935492 24.31592799 -22.13139845 15.52273752 -18.5625 9.8125 C-16.8125 8.8125 -16.8125 8.8125 -11.8125 9.8125 C-11.4825 14.1025 -11.1525 18.3925 -10.8125 22.8125 C-10.1525 22.8125 -9.4925 22.8125 -8.8125 22.8125 C-8.89951172 20.95044922 -8.89951172 20.95044922 -8.98828125 19.05078125 C-9.03519238 17.40889186 -9.08069109 15.76696168 -9.125 14.125 C-9.1878418 12.90006836 -9.1878418 12.90006836 -9.25195312 11.65039062 C-9.34125743 7.23875807 -9.23077175 5.37974525 -6.53125 1.71875 C-3.8125 -0.1875 -3.8125 -0.1875 0 0 Z " fill="#060A0F" transform="translate(283.8125,29.1875)"></path>
<path d="M0 0 C2.10234954 0.00313029 4.20324677 -0.02023772 6.30541992 -0.0456543 C28.61581878 -0.15814591 28.61581878 -0.15814591 35.39941406 5.80273438 C38.33795372 9.20617634 38.91584862 11.20623536 38.8503418 15.71801758 C37.53244673 27.89024286 32.57763672 40.30047685 24.70581055 49.65942383 C18.11351289 54.76935839 11.0526443 54.75760886 3.0690918 54.62817383 C2.07522461 54.63139648 1.08135742 54.63461914 0.05737305 54.63793945 C-7.47533516 54.5832104 -15.21705973 54.40521015 -21.05200195 48.98364258 C-28.47484928 40.00473094 -29.94641044 28.64310072 -29.74731445 17.37426758 C-29.1568809 11.6667432 -27.07089307 7.99998261 -23.1184082 3.94067383 C-15.93784012 -0.40106501 -8.09745424 -0.02512714 0 0 Z " fill="#F5F8FA" transform="translate(98.430908203125,145.684326171875)"></path>
<path d="M0 0 C2.11963208 0.03656219 4.23750648 0.04101761 6.35742188 0.04052734 C27.82063327 0.14977645 27.82063327 0.14977645 35.12304688 7.41162109 C39.71500775 13.63298745 38.62497321 20.90541105 37.58398438 28.17724609 C34.63764257 44.4306921 34.63764257 44.4306921 28.31054688 50.28662109 C21.95756465 54.52194258 15.7384184 54.77169529 8.31054688 54.72412109 C6.98204712 54.71783691 6.98204712 54.71783691 5.62670898 54.71142578 C-1.89690168 54.58121877 -8.08448373 53.65262574 -14.62695312 49.78662109 C-24.17779398 39.70517796 -29.40663774 26.0829075 -29.20507812 12.25927734 C-28.87695312 9.41162109 -28.87695312 9.41162109 -27.00195312 6.41162109 C-18.25214476 0.81174374 -10.25205747 -0.18256439 0 0 Z " fill="#F6F8FA" transform="translate(208.876953125,145.58837890625)"></path>
<path d="M0 0 C0.495 4.455 0.495 4.455 1 9 C3.97 9.33 6.94 9.66 10 10 C10 6.7 10 3.4 10 0 C35.73879842 1.1662893 61.16645303 8.15096309 79.66796875 27.03125 C82.22069375 29.18631432 83.68502145 29.82872611 87 30 C89.45714369 28.54331238 89.45714369 28.54331238 91 26 C91.33448259 22.832168 91.33448259 22.832168 91 20 C91.62648437 19.92394531 92.25296875 19.84789063 92.8984375 19.76953125 C95.16923123 19.2089343 95.16923123 19.2089343 95.9765625 17.07421875 C96.19054687 16.28660156 96.40453125 15.49898437 96.625 14.6875 C97.49660388 11.58561559 98.47641896 8.84532015 100 6 C100.66 6 101.32 6 102 6 C104.22313709 22.36887608 104.22313709 22.36887608 100.60839844 28.27294922 C95.42437316 34.31812249 88.922379 39.11540286 82 43 C81.41992188 42.59007812 80.83984375 42.18015625 80.2421875 41.7578125 C73.26408909 36.76446016 73.26408909 36.76446016 65.03125 34.984375 C62.78336717 34.93404926 61.10476242 34.81121052 59 34 C57.42195125 31.91536174 56.38857031 29.77309014 55.2578125 27.41796875 C51.70378008 20.58583811 46.40921409 17.28995156 39.33203125 14.7265625 C31.45724888 12.27311272 24.77208121 11.9607218 17.2109375 15.6484375 C14.02347315 17.59695811 11.34058273 19.95343003 8.62890625 22.51171875 C7 24 7 24 5 25 C4.9175 24.38125 4.835 23.7625 4.75 23.125 C4.21749089 20.86160975 4.21749089 20.86160975 2.22265625 20.03125 C1.48917969 19.6909375 0.75570312 19.350625 0 19 C-0.67675781 18.57460938 -1.35351562 18.14921875 -2.05078125 17.7109375 C-9.48823853 13.31782802 -16.51256904 12.88975227 -25 14 C-33.80990411 16.5396827 -42.45968959 23.49299767 -46.9375 31.4375 C-49.86742267 35.07770696 -52.69984416 34.85195953 -57.18359375 35.4609375 C-64.51143286 36.863492 -69.90403836 41.98367652 -74 48 C-77.06976465 53.09012093 -78.15112658 57.37624346 -78.375 63.3125 C-78.63478918 68.54158998 -78.63478918 68.54158998 -80.31640625 70.65234375 C-82.4953481 72.12772365 -84.34466071 73 -87 73 C-89.08379509 76.84700632 -90.49686624 80.90054429 -92 85 C-92.33 84.34 -92.66 83.68 -93 83 C-94.89533342 82.53476937 -94.89533342 82.53476937 -97.0625 82.375 C-99.0115625 82.189375 -99.0115625 82.189375 -101 82 C-101.66 83.32 -102.32 84.64 -103 86 C-104 84 -104 84 -103.03125 80.796875 C-102.53168341 79.44386097 -102.02041819 78.09513147 -101.5 76.75 C-101.08778198 75.67625122 -101.08778198 75.67625122 -100.66723633 74.58081055 C-93.49266497 56.28353093 -83.43727685 39.45176576 -68 27 C-67.50951172 26.59765137 -67.01902344 26.19530273 -66.51367188 25.78076172 C-48.07709087 10.83293206 -24.08585858 -0.68816739 0 0 Z " fill="#B1C3D4" transform="translate(151,44)"></path>
<path d="M0 0 C2.9375 0.75 2.9375 0.75 4.9375 2.75 C5.1328125 5.7890625 5.1328125 5.7890625 5.0625 9.375 C5.04445313 10.56351563 5.02640625 11.75203125 5.0078125 12.9765625 C4.98460937 13.89179687 4.96140625 14.80703125 4.9375 15.75 C5.79988281 15.77578125 6.66226563 15.8015625 7.55078125 15.828125 C35.90211403 17.14539917 64.82500909 27.19138842 85.9375 46.75 C86.625 49.25 86.625 49.25 85.9375 51.75 C83.75 54.625 83.75 54.625 80.9375 56.75 C78.5625 57 78.5625 57 75.9375 55.75 C74.97320052 54.79721454 74.0398336 53.81287648 73.125 52.8125 C69.51881076 48.96801632 65.4500398 46.31967326 61 43.5625 C60.33186279 43.14685791 59.66372559 42.73121582 58.9753418 42.30297852 C46.01463009 34.40141576 33.19999246 30.28623793 18.25 28 C16.85465875 27.77834212 15.45947477 27.55569183 14.06445312 27.33203125 C10.69053269 26.7932682 7.31470174 26.26784826 3.9375 25.75 C3.9375 29.05 3.9375 32.35 3.9375 35.75 C-2.99609375 35.84765625 -2.99609375 35.84765625 -5.0625 35.75 C-6.0625 34.75 -6.0625 34.75 -6.16015625 32.68359375 C-6.14855469 31.85988281 -6.13695312 31.03617188 -6.125 30.1875 C-6.11597656 29.36121094 -6.10695313 28.53492187 -6.09765625 27.68359375 C-6.08605469 27.04550781 -6.07445312 26.40742187 -6.0625 25.75 C-32.24292187 29.04191695 -54.71351977 37.95931139 -75.0625 54.75 C-75.79984375 55.32234375 -76.5371875 55.8946875 -77.296875 56.484375 C-92.94858523 69.13095687 -103.52481181 89.85890737 -108.5 109.0625 C-109.55405805 112.46183722 -110.869588 113.63220532 -114 115.3125 C-117.05954407 116.63889194 -118.56071556 116.75 -122.0625 116.75 C-120.78784735 92.53159957 -105.26377718 69.72530854 -89.0625 52.75 C-88.54961426 52.20722412 -88.03672852 51.66444824 -87.50830078 51.10522461 C-83.35054894 46.80785996 -78.96869197 43.22109623 -74.0625 39.8125 C-73.32193359 39.29671387 -72.58136719 38.78092773 -71.81835938 38.24951172 C-52.44474902 24.98495826 -29.92748756 15.55008442 -6.0625 16.75 C-6.09730469 15.69039062 -6.13210937 14.63078125 -6.16796875 13.5390625 C-6.19610399 12.15105748 -6.22340443 10.76303537 -6.25 9.375 C-6.27513672 8.67632812 -6.30027344 7.97765625 -6.32617188 7.2578125 C-6.35546875 5.2265625 -6.35546875 5.2265625 -6.0625 1.75 C-3.0625 -0.25 -3.0625 -0.25 0 0 Z " fill="#050A0F" transform="translate(157.0625,18.25)"></path>
<path d="M0 0 C0.33 0 0.66 0 1 0 C1.55038621 11.7366141 -4.97963503 22.31975691 -10.4375 32.375 C-10.87940674 33.19444092 -11.32131348 34.01388184 -11.77661133 34.8581543 C-24.63600628 57.95929726 -47.84343236 74.38150918 -73 82 C-83.34380616 84.63883968 -93.32704761 86.22235317 -104 86 C-104.33 85.01 -104.66 84.02 -105 83 C-106.32 83 -107.64 83 -109 83 C-109.495 84.485 -109.495 84.485 -110 86 C-135.49170465 86.66985501 -157.83546657 78.23674941 -177.90307617 62.76879883 C-181.44871265 60.04293991 -184.90614778 57.87557004 -189 56 C-188.40269644 52.65510004 -187.42082645 50.42082645 -185 48 C-182.08377516 47.64026832 -180.55331754 47.63224627 -178.078125 49.27734375 C-177.47484375 49.82519531 -176.8715625 50.37304688 -176.25 50.9375 C-171.92938045 54.40214775 -168.43838564 54.96995367 -163 55 C-161.824375 55.020625 -160.64875 55.04125 -159.4375 55.0625 C-158.633125 55.041875 -157.82875 55.02125 -157 55 C-156.84144531 55.59167969 -156.68289062 56.18335938 -156.51953125 56.79296875 C-154.16229822 64.77630494 -150.70116824 68.23498389 -143.4375 72.3125 C-134.59575308 76.52182246 -126.2855352 76.03064377 -117.1328125 72.92578125 C-113.54743941 71.36949293 -110.7648822 69.52976439 -109 66 C-104.18036138 66.8184292 -100.64139183 69.73489119 -96.65625 72.40625 C-90.87211622 75.87673027 -84.15054686 75.80686084 -77.62890625 74.5390625 C-69.15547404 72.04255734 -63.27866834 67.37556902 -58.91015625 59.734375 C-58.26045177 58.49631153 -57.62528666 57.25057333 -57 56 C-55.03278512 55.65284443 -53.04894411 55.3984293 -51.0625 55.1875 C-41.03258061 53.73897772 -34.21635628 50.33328063 -27.6953125 42.4921875 C-25.04624529 38.59793663 -23.41901848 34.47177534 -22 30 C-22.99 29.67 -23.98 29.34 -25 29 C-23.948125 28.5875 -22.89625 28.175 -21.8125 27.75 C-18.40175528 26.30301739 -15.85097569 24.37581308 -13 22 C-12.01 21.67 -11.02 21.34 -10 21 C-8.87914688 18.6569191 -8.87914688 18.6569191 -8 16 C-7.34786461 14.65949948 -6.68620031 13.32338632 -6 12 C-5.01 12 -4.02 12 -3 12 C-3 10.35 -3 8.7 -3 7 C-2.34 6.67 -1.68 6.34 -1 6 C-1.0309375 4.7934375 -1.0309375 4.7934375 -1.0625 3.5625 C-1 1 -1 1 0 0 Z " fill="#B2C4D4" transform="translate(264,184)"></path>
<path d="M0 0 C1.4375 -0.02083333 2.875 -0.04166667 4.3125 -0.0625 C5.51326172 -0.07990234 5.51326172 -0.07990234 6.73828125 -0.09765625 C9 0 9 0 12 1 C13.43459241 3.86918482 13.03923533 6.41447548 13.0625 9.625 C13.6657647 25.11120227 20.14248573 40.84820041 27.75 54.1953125 C29.16516732 57.37059419 29.31907359 59.55998784 29 63 C28 64 28 64 24.75 64.375 C19.94651294 63.89465129 19.09150325 62.62832242 16 59 C14.46359287 56.51848439 13.19047225 53.94650379 11.9375 51.3125 C11.61201172 50.65572266 11.28652344 49.99894531 10.95117188 49.32226562 C9.93031817 47.2300209 8.95680605 45.12227977 8 43 C7.65114746 42.23292725 7.30229492 41.46585449 6.94287109 40.67553711 C4.16915464 34.2166664 2.81790848 27.86577509 1.75 20.9375 C1.57726563 19.91333984 1.40453125 18.88917969 1.2265625 17.83398438 C0.25653591 11.80981128 -0.17771948 6.09958653 0 0 Z " fill="#05090E" transform="translate(35,165)"></path>
<path d="M0 0 C0.66 1.32 1.32 2.64 2 4 C-1.97332092 9.10660489 -4.7011258 12.3807913 -11.359375 13.33984375 C-15.79472968 14.02876718 -18.38424889 14.47795015 -21.875 17.4375 C-24.91090201 21.78680642 -26.39668831 26.99358066 -28 32 C-28.33 32.99 -28.66 33.98 -29 35 C-31.3125 34.8125 -31.3125 34.8125 -34 34 C-34.4125 33.21625 -34.825 32.4325 -35.25 31.625 C-37.58973416 28.11539877 -39.87282587 27.79264136 -43.84375 26.7734375 C-46.28498904 25.89777567 -47.38900836 25.01373955 -49 23 C-50.04976964 19.85069107 -50.10131595 17.61185544 -50.0625 14.3125 C-50.05347656 13.31863281 -50.04445313 12.32476562 -50.03515625 11.30078125 C-50.02355469 10.54152344 -50.01195313 9.78226563 -50 9 C-49.34 9 -48.68 9 -48 9 C-46.5625 10.49609375 -46.5625 10.49609375 -45 12.4375 C-42.47010675 15.56824289 -41.27269805 16.81164773 -37.17578125 17.41796875 C-33.80721423 17.30724309 -33.80721423 17.30724309 -31.60546875 14.55078125 C-30.79418318 13.47532889 -29.98848039 12.39564932 -29.1875 11.3125 C-22.02341709 2.54685282 -11.17235712 -0.49109262 0 0 Z " fill="#0C1318" transform="translate(125,158)"></path>
<path d="M0 0 C2.475 0.495 2.475 0.495 5 1 C3.7934375 1.804375 3.7934375 1.804375 2.5625 2.625 C-0.28548294 4.77685679 -0.28548294 4.77685679 -0.5 8.0625 C-1 11 -1 11 -3.5625 12.875 C-4.7690625 13.431875 -4.7690625 13.431875 -6 14 C-5.48804503 19.53605545 -3.37308841 23.39286702 -0.6875 28.125 C2.98155794 34.81046787 6.43692166 41.46278328 8 49 C7.67 49.66 7.34 50.32 7 51 C6.505 50.505 6.505 50.505 6 50 C4.14712498 49.92773498 2.29166122 49.9161878 0.4375 49.9375 C-0.57441406 49.94652344 -1.58632813 49.95554688 -2.62890625 49.96484375 C-3.41136719 49.97644531 -4.19382813 49.98804688 -5 50 C-5.391875 48.96875 -5.78375 47.9375 -6.1875 46.875 C-8.70508461 41.03609485 -12.26103287 36.95146881 -18 34 C-17.773125 32.700625 -17.54625 31.40125 -17.3125 30.0625 C-16.69575014 24.81179172 -17.98706429 20.81057518 -20 16 C-18.2984375 15.01 -18.2984375 15.01 -16.5625 14 C-12.2168635 11.31205728 -8.59307413 8.07117265 -4.8828125 4.57421875 C-3 3 -3 3 -1 3 C-0.67 2.01 -0.34 1.02 0 0 Z " fill="#B6C7D6" transform="translate(259,78)"></path>
<path d="M0 0 C1.175625 0.144375 2.35125 0.28875 3.5625 0.4375 C10.35552324 1.19953786 17.17916837 1.57762966 24 2 C24.350625 3.175625 24.70125 4.35125 25.0625 5.5625 C26.90984111 10.44226898 29.66144978 14.05797882 34 17 C38.46217503 17.47469947 40.82091628 15.52012521 44.25 12.9375 C44.91515625 12.38964844 45.5803125 11.84179688 46.265625 11.27734375 C48 10 48 10 50 10 C49.7354933 15.95140066 49.27996341 20.50603842 45 25 C42.70948482 25.94437154 40.43247616 26.62636865 38.04296875 27.27734375 C35.39236021 28.21493951 34.56132615 29.73607708 33 32 C30.5 32.4375 30.5 32.4375 28 32 C25.80246033 30.3452579 25.07764489 29.47485981 24.62890625 26.73046875 C24.60699219 25.89128906 24.58507812 25.05210937 24.5625 24.1875 C24.16307022 19.39434264 23.66891303 16.40684781 20 13 C17.26161375 12.50251182 14.61634455 12.3701626 11.8359375 12.26953125 C7.500322 11.85746862 4.69492351 10.25800881 1 8 C-0.35439668 5.29120665 -0.06501451 2.99066732 0 0 Z " fill="#0E1216" transform="translate(191,159)"></path>
<path d="M0 0 C4.73987308 1.43113587 5.80626893 4.41802181 8.22265625 8.53125 C14.63088905 20.54321885 19.36986541 31.04193526 19.02734375 44.9140625 C10.23884079 43.48958126 10.23884079 43.48958126 7.58105469 40.03320312 C6.50908686 37.60843913 5.67815233 35.19912213 4.90234375 32.6640625 C4.27344871 30.85273339 3.63661784 29.04414162 2.9921875 27.23828125 C2.67620605 26.34028809 2.36022461 25.44229492 2.03466797 24.51708984 C0.28106712 19.98560844 -2.11761825 15.82577083 -4.62353516 11.67285156 C-6.17382129 8.99022963 -6.98481108 7.26071832 -6.875 4.12890625 C-5.4313223 0.58533371 -3.72204859 -0.10760193 0 0 Z " fill="#070D15" transform="translate(258.97265625,89.0859375)"></path>
<path d="M0 0 C1.32 0.33 2.64 0.66 4 1 C4.28875 2.11375 4.5775 3.2275 4.875 4.375 C5.69241329 8.00291092 5.69241329 8.00291092 8 10 C7.90383146 13.55823605 7.02238111 14.97264531 4.75 17.75 C1.97788231 20.0180963 0.50946994 20.69918829 -3 21 C-2.95359375 21.58007812 -2.9071875 22.16015625 -2.859375 22.7578125 C-2.59822305 28.40988674 -3.10504143 31.59254688 -7 36 C-11.36560662 39.65492648 -16.28733037 41.70294118 -22 42 C-22.66 41.34 -23.32 40.68 -24 40 C-24 38.68 -24 37.36 -24 36 C-22.9275 35.443125 -21.855 34.88625 -20.75 34.3125 C-17.31166784 32.31087459 -15.00654051 30.5315113 -13 27 C-12.24518874 21.80461531 -12.24518874 21.80461531 -14.12890625 17.10546875 C-15.03054178 15.9264069 -15.94954075 14.76038798 -16.88671875 13.609375 C-18.4268674 11.38291449 -18.39814757 9.62777395 -18 7 C-14 7 -14 7 -11.0625 9.0625 C-8.23398914 11.24834861 -8.23398914 11.24834861 -5.375 10.9375 C-2.86258184 9.94575599 -1.05046423 8.74669175 1 7 C0.67 4.69 0.34 2.38 0 0 Z " fill="#0B0F14" transform="translate(203,88)"></path>
<path d="M0 0 C0.33 0 0.66 0 1 0 C1.09498779 0.54825439 1.18997559 1.09650879 1.2878418 1.66137695 C3.57348431 14.58983914 5.99353028 26.24130632 14 37 C14.36738281 37.5465625 14.73476563 38.093125 15.11328125 38.65625 C17.51325547 41.97087238 18.76790586 42.94673249 22.8125 43.875 C23.864375 43.91625 24.91625 43.9575 26 44 C24.515 44.495 24.515 44.495 23 45 C23.309375 46.010625 23.61875 47.02125 23.9375 48.0625 C24.97647919 51.6731369 25.54311181 55.26874647 26 59 C24.453125 59.3403125 24.453125 59.3403125 22.875 59.6875 C18.65591742 60.86471856 16.18463216 63.04838971 13 66 C12.67 65.34 12.34 64.68 12 64 C11.01 64 10.02 64 9 64 C9.33 63.01 9.66 62.02 10 61 C12.5625 59.8125 12.5625 59.8125 15 59 C15.35173675 54.06102982 14.43318992 51.39394481 12 47.125 C4.34257023 32.72502815 -1.90171799 16.48155595 0 0 Z " fill="#B1C6D7" transform="translate(48,169)"></path>
<path d="M0 0 C0.66 0 1.32 0 2 0 C4.22313709 16.36887608 4.22313709 16.36887608 0.60839844 22.27294922 C-4.57562684 28.31812249 -11.077621 33.11540286 -18 37 C-19.65 35.68 -21.3 34.36 -23 33 C-22.45276317 29.62537285 -21.9451 27.91765 -20 25 C-17.69 25.33 -15.38 25.66 -13 26 C-12.71125 25.38125 -12.4225 24.7625 -12.125 24.125 C-11 22 -11 22 -9 20 C-8.83318891 16.91652174 -8.83318891 16.91652174 -9 14 C-8.37351563 13.92394531 -7.74703125 13.84789062 -7.1015625 13.76953125 C-4.83076877 13.2089343 -4.83076877 13.2089343 -4.0234375 11.07421875 C-3.80945313 10.28660156 -3.59546875 9.49898437 -3.375 8.6875 C-2.50339612 5.58561559 -1.52358104 2.84532015 0 0 Z " fill="#C6D0D9" transform="translate(251,50)"></path>
<path d="M0 0 C0.928125 0.66 1.85625 1.32 2.8125 2 C6.17923207 3.96279117 8.56841554 4.1724383 12.4375 4 C17.61115648 3.80018982 21.97889019 4.51647171 26 8 C26.7109375 10.140625 26.7109375 10.140625 27 12 C23.29088855 15.54784573 19.03998153 16.83320924 14 17 C2.6497703 14.88251798 2.6497703 14.88251798 -0.8828125 10.8515625 C-1.25148437 10.24054688 -1.62015625 9.62953125 -2 9 C-1.67 8.67 -1.34 8.34 -1 8 C-0.76924918 6.65252916 -0.58846937 5.29622435 -0.4375 3.9375 C-0.293125 2.638125 -0.14875 1.33875 0 0 Z " fill="#141619" transform="translate(165,206)"></path>
<path d="M0 0 C3.27053517 -0.11608726 6.5405418 -0.18720711 9.8125 -0.25 C10.74126953 -0.28351563 11.67003906 -0.31703125 12.62695312 -0.3515625 C13.9659668 -0.37089844 13.9659668 -0.37089844 15.33203125 -0.390625 C16.56530151 -0.4220459 16.56530151 -0.4220459 17.82348633 -0.45410156 C20 0 20 0 21.7722168 1.86035156 C23.27168615 4.47346538 23.39057803 6.03160697 23 9 C21 11 21 11 18.93701172 11.22705078 C17.69588623 11.21134033 17.69588623 11.21134033 16.4296875 11.1953125 C15.53378906 11.18886719 14.63789063 11.18242187 13.71484375 11.17578125 C12.77769531 11.15902344 11.84054687 11.14226562 10.875 11.125 C9.93011719 11.11597656 8.98523438 11.10695312 8.01171875 11.09765625 C5.67422708 11.07404522 3.33723877 11.04111516 1 11 C-0.28317892 7.15046324 -0.06643637 4.05261865 0 0 Z " fill="#12191D" transform="translate(279,148)"></path>
<path d="M0 0 C0.88816406 0.00193359 1.77632812 0.00386719 2.69140625 0.00585938 C3.61566406 0.01810547 4.53992188 0.03035156 5.4921875 0.04296875 C6.42417969 0.04361328 7.35617188 0.04425781 8.31640625 0.04492188 C15.22690591 0.09018716 15.22690591 0.09018716 16.3671875 1.23046875 C16.60447564 7.75589248 16.60447564 7.75589248 15.3671875 10.23046875 C11.72137063 10.25934387 8.07558287 10.2772246 4.4296875 10.29296875 C2.86831055 10.30553711 2.86831055 10.30553711 1.27539062 10.31835938 C0.28603516 10.32158203 -0.70332031 10.32480469 -1.72265625 10.328125 C-2.63909912 10.33336182 -3.55554199 10.33859863 -4.49975586 10.34399414 C-6.6328125 10.23046875 -6.6328125 10.23046875 -7.6328125 9.23046875 C-7.8828125 5.79296875 -7.8828125 5.79296875 -7.6328125 2.23046875 C-4.44830035 0.10746065 -3.64807887 -0.01837369 0 0 Z " fill="#06090F" transform="translate(19.6328125,147.76953125)"></path>
<path d="M0 0 C2.475 0.495 2.475 0.495 5 1 C3.7934375 1.804375 3.7934375 1.804375 2.5625 2.625 C-0.30231629 4.74682948 -0.30231629 4.74682948 -0.25 7.875 C-1.31903857 12.32932739 -3.90079383 13.38197571 -7.67578125 15.703125 C-9.16173354 16.5322614 -10.67432234 17.31634875 -12.21484375 18.0390625 C-14.51553584 19.27750945 -15.04797445 20.61993612 -16 23 C-18.54106009 20.79038253 -19.30621489 19.26011642 -20 16 C-18.2984375 15.01 -18.2984375 15.01 -16.5625 14 C-12.2168635 11.31205728 -8.59307413 8.07117265 -4.8828125 4.57421875 C-3 3 -3 3 -1 3 C-0.67 2.01 -0.34 1.02 0 0 Z " fill="#D0D9E6" transform="translate(259,78)"></path>
<path d="M0 0 C0.66 0.66 1.32 1.32 2 2 C0.68 3.32 -0.64 4.64 -2 6 C-1.34 7.32 -0.68 8.64 0 10 C-2.97 12.64 -5.94 15.28 -9 18 C-10.98 16.68 -12.96 15.36 -15 14 C-14.45276317 10.62537285 -13.9451 8.91765 -12 6 C-9.69 6.33 -7.38 6.66 -5 7 C-4.731875 6.401875 -4.46375 5.80375 -4.1875 5.1875 C-3.01506533 3.02775192 -1.80630718 1.64209744 0 0 Z " fill="#C7D7E2" transform="translate(243,69)"></path>
<path d="M0 0 C0.33 0 0.66 0 1 0 C1.10022461 0.55349121 1.20044922 1.10698242 1.30371094 1.67724609 C3.68859609 15.12649634 3.68859609 15.12649634 8.25 27.9453125 C9.49624273 31.35949832 9.26612642 34.40729337 9 38 C9.639375 38.2475 10.27875 38.495 10.9375 38.75 C13 40 13 40 13.6875 41.875 C13.790625 42.57625 13.89375 43.2775 14 44 C14.185625 44.7425 14.37125 45.485 14.5625 46.25 C14.706875 46.8275 14.85125 47.405 15 48 C14.01 48.495 14.01 48.495 13 49 C5.03145583 33.97354343 -1.99252948 17.26858883 0 0 Z " fill="#829FB9" transform="translate(48,169)"></path>
<path d="M0 0 C0.33 0 0.66 0 1 0 C1.33354181 5.707271 0.34390376 9.71594419 -1.8125 14.875 C-2.07353516 15.55046875 -2.33457031 16.2259375 -2.60351562 16.921875 C-3.39453125 18.8671875 -3.39453125 18.8671875 -5 22 C-5.99 22.33 -6.98 22.66 -8 23 C-8.804375 23.804375 -9.60875 24.60875 -10.4375 25.4375 C-14.09296847 29.09296847 -16.14737708 30.09809689 -21.25 30.125 C-22.4875 30.08375 -23.725 30.0425 -25 30 C-24.42378906 29.73316406 -23.84757813 29.46632812 -23.25390625 29.19140625 C-20.19172839 27.57275071 -17.61994256 25.47323706 -14.90234375 23.33984375 C-13 22 -13 22 -10 21 C-8.87914688 18.6569191 -8.87914688 18.6569191 -8 16 C-7.34786461 14.65949948 -6.68620031 13.32338632 -6 12 C-5.01 12 -4.02 12 -3 12 C-3 10.35 -3 8.7 -3 7 C-2.34 6.67 -1.68 6.34 -1 6 C-1.020625 5.195625 -1.04125 4.39125 -1.0625 3.5625 C-1 1 -1 1 0 0 Z " fill="#D2D9DE" transform="translate(264,184)"></path>
<path d="M0 0 C0.66 0.33 1.32 0.66 2 1 C-3.46359726 6.61536385 -6.95885264 9.33988188 -14.75 10.6875 C-15.44738281 10.81705078 -16.14476562 10.94660156 -16.86328125 11.08007812 C-18.57375889 11.39639933 -20.28666725 11.69952747 -22 12 C-23 9 -23 9 -22 6 C-19.1640625 4.796875 -19.1640625 4.796875 -15.625 3.75 C-14.46226562 3.39421875 -13.29953125 3.0384375 -12.1015625 2.671875 C-9 2 -9 2 -6 3 C-6 3.66 -6 4.32 -6 5 C-5.38125 4.360625 -4.7625 3.72125 -4.125 3.0625 C-2 1 -2 1 0 0 Z " fill="#F0F4F6" transform="translate(250,204)"></path>
<path d="M0 0 C0.66 0 1.32 0 2 0 C1.67 1.98 1.34 3.96 1 6 C4.96 6 8.92 6 13 6 C13.33 6.66 13.66 7.32 14 8 C11.54724859 9.2263757 9.9494219 9.11415314 7.2109375 9.09765625 C6.26992188 9.09443359 5.32890625 9.09121094 4.359375 9.08789062 C3.37453125 9.07951172 2.3896875 9.07113281 1.375 9.0625 C-0.11386719 9.05573242 -0.11386719 9.05573242 -1.6328125 9.04882812 C-4.0886016 9.03702145 -6.54427104 9.020554 -9 9 C-8.34 7.35 -7.68 5.7 -7 4 C-5.02 4 -3.04 4 -1 4 C-0.67 2.68 -0.34 1.36 0 0 Z " fill="#C9D6E2" transform="translate(24,248)"></path>
<path d="M0 0 C0.33 0.66 0.66 1.32 1 2 C1.66 2 2.32 2 3 2 C3.33 8.93 3.66 15.86 4 23 C3.01 23 2.02 23 1 23 C1 17.72 1 12.44 1 7 C-0.65 6.67 -2.3 6.34 -4 6 C-2.84826645 3.53199953 -1.95216435 1.95216435 0 0 Z " fill="#C3D4E7" transform="translate(260,40)"></path>
<path d="M0 0 C0.33 0 0.66 0 1 0 C1 1.65 1 3.3 1 5 C1.85464844 5.19335938 2.70929687 5.38671875 3.58984375 5.5859375 C4.69457031 5.84632813 5.79929687 6.10671875 6.9375 6.375 C8.03964844 6.63023437 9.14179687 6.88546875 10.27734375 7.1484375 C11.17582031 7.42945313 12.07429688 7.71046875 13 8 C13.33 8.66 13.66 9.32 14 10 C8.75553818 10.11026464 3.75639047 9.70328983 -1.4375 9 C-2.16904297 8.90460938 -2.90058594 8.80921875 -3.65429688 8.7109375 C-5.436723 8.47794062 -7.21844104 8.23953734 -9 8 C-6.82615436 5.82615436 -4.68729526 4.47801239 -2 3 C-1.34 3 -0.68 3 0 3 C0 2.01 0 1.02 0 0 Z " fill="#CDD6E2" transform="translate(34,238)"></path>
<path d="M0 0 C1.17829199 2.35658397 1.04414372 3.52573236 0.87890625 6.1328125 C0.83056641 6.93847656 0.78222656 7.74414062 0.73242188 8.57421875 C0.64831055 9.83685547 0.64831055 9.83685547 0.5625 11.125 C0.51029297 11.97449219 0.45808594 12.82398438 0.40429688 13.69921875 C0.27448622 15.79979124 0.1378826 17.89994191 0 20 C-0.99 20.33 -1.98 20.66 -3 21 C-3 16.38 -3 11.76 -3 7 C-3.99 6.67 -4.98 6.34 -6 6 C-4.625 4.5 -4.625 4.5 -3 3 C-2.34 3 -1.68 3 -1 3 C-0.67 2.01 -0.34 1.02 0 0 Z " fill="#D1DBEA" transform="translate(275,32)"></path>
<path d="M0 0 C12.66970387 0.96355353 12.66970387 0.96355353 18 2 C17.67 2.99 17.34 3.98 17 5 C14.93722893 4.85805236 12.87478969 4.71127784 10.8125 4.5625 C9.66394531 4.48128906 8.51539063 4.40007812 7.33203125 4.31640625 C4.48401829 4.04596188 1.78789518 3.62478253 -1 3 C-0.67 2.01 -0.34 1.02 0 0 Z " fill="#CAD4E0" transform="translate(279,60)"></path>
<path d="M0 0 C-0.33 1.32 -0.66 2.64 -1 4 C-0.34 4 0.32 4 1 4 C1 4.99 1 5.98 1 7 C0.34 7 -0.32 7 -1 7 C-1.33 7.66 -1.66 8.32 -2 9 C-2.66 7.35 -3.32 5.7 -4 4 C-9.61 3.34 -15.22 2.68 -21 2 C-21 1.67 -21 1.34 -21 1 C-17.87504511 0.83248032 -14.75002908 0.66612942 -11.625 0.5 C-10.73554688 0.45230469 -9.84609375 0.40460938 -8.9296875 0.35546875 C-7.65351563 0.28779297 -7.65351563 0.28779297 -6.3515625 0.21875 C-5.56604004 0.17685547 -4.78051758 0.13496094 -3.97119141 0.09179688 C-2.64854076 0.03020205 -1.32408408 0 0 0 Z " fill="#C2D3DE" transform="translate(35,158)"></path>
<path d="M0 0 C0.66 0.33 1.32 0.66 2 1 C2.02707139 3.24993359 2.04642829 5.49996095 2.0625 7.75 C2.07410156 9.00296875 2.08570313 10.2559375 2.09765625 11.546875 C2.02021027 14.28536501 1.82780815 16.41880293 1 19 C0.34 19 -0.32 19 -1 19 C-1.02697137 16.39576408 -1.04682489 13.79180756 -1.0625 11.1875 C-1.07087891 10.44951172 -1.07925781 9.71152344 -1.08789062 8.95117188 C-1.10259828 5.70077932 -1.03531702 3.10595105 0 0 Z " fill="#BAC9CB" transform="translate(52,256)"></path>
<path d="M0 0 C1.32 0 2.64 0 4 0 C4 0.66 4 1.32 4 2 C4.66 2 5.32 2 6 2 C9.13544807 7.76922444 9.63890592 12.56760233 8 19 C7.34 19.33 6.68 19.66 6 20 C5.97421875 19.20335938 5.9484375 18.40671875 5.921875 17.5859375 C5.5762473 11.12898368 5.19856348 6.98579414 1 2 C0.67 1.34 0.34 0.68 0 0 Z " fill="#252B41" transform="translate(145,72)"></path>
<path d="M0 0 C0.33 0 0.66 0 1 0 C1 5.28 1 10.56 1 16 C0.01 16.33 -0.98 16.66 -2 17 C-2.05383848 14.54137599 -2.09359038 12.0839245 -2.125 9.625 C-2.14175781 8.92632812 -2.15851562 8.22765625 -2.17578125 7.5078125 C-2.19344267 5.67102514 -2.10303261 3.83398037 -2 2 C-1.34 1.34 -0.68 0.68 0 0 Z " fill="#DDE3F0" transform="translate(40,265)"></path>
<path d="M0 0 C0.99 0 1.98 0 3 0 C2.67 2.64 2.34 5.28 2 8 C2.66 8 3.32 8 4 8 C4 8.66 4 9.32 4 10 C-1.75 9.125 -1.75 9.125 -4 8 C-3.40353695 4.65980694 -2.31705841 2.49529367 0 0 Z " fill="#C0CFDF" transform="translate(79,232)"></path>
<path d="M0 0 C0.66 0.66 1.32 1.32 2 2 C1.236875 2.226875 0.47375 2.45375 -0.3125 2.6875 C-3.54736301 4.26731682 -4.41641358 5.83282717 -6 9 C-8.50037734 6.82575883 -9.43628586 5.26954202 -10 2 C-6.60535554 -0.08901197 -3.95158471 -0.34361606 0 0 Z " fill="#C6CFDF" transform="translate(249,92)"></path>
<path d="M0 0 C0.763125 0.78375 1.52625 1.5675 2.3125 2.375 C4.90891805 5.07257717 4.90891805 5.07257717 8 7 C7.38125 7.28875 6.7625 7.5775 6.125 7.875 C3.86674235 8.93720042 3.86674235 8.93720042 2 11 C1.67 9.68 1.34 8.36 1 7 C0.34 7 -0.32 7 -1 7 C-1 6.01 -1 5.02 -1 4 C-2.32 3.67 -3.64 3.34 -5 3 C-3.35 3 -1.7 3 0 3 C0 2.01 0 1.02 0 0 Z " fill="#213845" transform="translate(74,225)"></path>
<path d="M0 0 C2 1 2 1 3 2 C3.31241849 3.61416222 3.55131336 5.24293118 3.75 6.875 C3.86859375 7.75929688 3.9871875 8.64359375 4.109375 9.5546875 C4 12 4 12 2.578125 13.8203125 C1 15 1 15 0 15 C0 10.05 0 5.1 0 0 Z " fill="#C0D0E6" transform="translate(64,250)"></path>
<path d="M0 0 C1.98 0.99 1.98 0.99 4 2 C3.67 5.96 3.34 9.92 3 14 C5.31 14 7.62 14 10 14 C10 14.33 10 14.66 10 15 C7.03 15 4.06 15 1 15 C0.67 10.05 0.34 5.1 0 0 Z " fill="#C0CDDE" transform="translate(161,19)"></path>
<path d="M0 0 C0.33 0 0.66 0 1 0 C2.60881575 7.42640842 3.26442904 14.40501039 3 22 C-0.24129951 17.13805073 -0.13294839 12.98341492 -0.0625 7.25 C-0.05798828 6.55261719 -0.05347656 5.85523438 -0.04882812 5.13671875 C-0.0371002 3.42444197 -0.01916653 1.71220967 0 0 Z " fill="#6E92A5" transform="translate(48,169)"></path>
<path d="M0 0 C2.97 0 5.94 0 9 0 C7.02 0.99 7.02 0.99 5 2 C4.18415432 5.05908413 4.18415432 5.05908413 4 8 C4.99 8.33 5.98 8.66 7 9 C3 9 3 9 1.25 7.3125 C-0.18991433 4.64865849 -0.24862931 2.98355176 0 0 Z " fill="#2F4552" transform="translate(133,211)"></path>
<path d="M0 0 C0.33 0.99 0.66 1.98 1 3 C3.64 3.33 6.28 3.66 9 4 C8.67 5.32 8.34 6.64 8 8 C8 7.34 8 6.68 8 6 C5.36 5.67 2.72 5.34 0 5 C-0.66 6.32 -1.32 7.64 -2 9 C-2.33 8.34 -2.66 7.68 -3 7 C-2.06421005 4.64018187 -1.06652192 2.30368736 0 0 Z " fill="#C4D6E5" transform="translate(50,121)"></path>
<path d="M0 0 C2.6875 0.3125 2.6875 0.3125 5 1 C5.94721072 3.60482949 6.30222393 5.30674701 5.17578125 7.890625 C4.17063275 9.62582873 3.0893855 11.31640423 2 13 C0.58312881 8.74938644 1.80679961 6.28148375 3 2 C1.02 2.33 -0.96 2.66 -3 3 C-1.8125 1.4375 -1.8125 1.4375 0 0 Z " fill="#1B323D" transform="translate(125,94)"></path>
<path d="M0 0 C-0.66 2.31 -1.32 4.62 -2 7 C-4.64 7 -7.28 7 -10 7 C-7.62804123 3.37964188 -4.6075955 0 0 0 Z " fill="#DBE4F2" transform="translate(254,86)"></path>
<path d="M0 0 C1.65 0.33 3.3 0.66 5 1 C4.67 2.32 4.34 3.64 4 5 C0.04 5 -3.92 5 -8 5 C-8 4.67 -8 4.34 -8 4 C-5.69 4 -3.38 4 -1 4 C-0.67 2.68 -0.34 1.36 0 0 Z " fill="#0D1B25" transform="translate(155,266)"></path>
<path d="M0 0 C0.99 0 1.98 0 3 0 C3 6.27 3 12.54 3 19 C2.67 19 2.34 19 2 19 C1.690625 17.88625 1.38125 16.7725 1.0625 15.625 C0.17673517 12.2054845 0.17673517 12.2054845 -1 10 C-0.66666667 8.33333333 -0.33333333 6.66666667 0 5 C-0.33 4.34 -0.66 3.68 -1 3 C-0.67 2.01 -0.34 1.02 0 0 Z " fill="#C4CFD7" transform="translate(34,136)"></path>
<path d="M0 0 C0.99 0.33 1.98 0.66 3 1 C2.90460938 1.61488281 2.80921875 2.22976562 2.7109375 2.86328125 C2.60007812 3.67152344 2.48921875 4.47976562 2.375 5.3125 C2.20097656 6.51326172 2.20097656 6.51326172 2.0234375 7.73828125 C1.78466593 10.28723215 1.78466593 10.28723215 4 13 C3.34 13.66 2.68 14.32 2 15 C-0.35119399 11.47320901 -0.21443452 9.97120515 -0.125 5.8125 C-0.10695313 4.72582031 -0.08890625 3.63914062 -0.0703125 2.51953125 C-0.04710938 1.68808594 -0.02390625 0.85664062 0 0 Z " fill="#101826" transform="translate(115,109)"></path>
<path d="M0 0 C0.66 0 1.32 0 2 0 C2.09945415 6.11090483 2.0712828 11.97403427 1 18 C0.67 18 0.34 18 0 18 C-0.90375653 11.67370431 -0.90375653 6.32629569 0 0 Z " fill="#BAC6DB" transform="translate(25,268)"></path>
<path d="M0 0 C6.0546875 -0.1953125 6.0546875 -0.1953125 8 0 C8.66 0.66 9.32 1.32 10 2 C9.8125 4 9.8125 4 9 6 C8.01 6.66 7.02 7.32 6 8 C6 6.02 6 4.04 6 2 C3.03 1.505 3.03 1.505 0 1 C0 0.67 0 0.34 0 0 Z " fill="#273033" transform="translate(89,115)"></path>
<path d="M0 0 C1.9453125 -0.29296875 1.9453125 -0.29296875 4.125 -0.1875 C5.40375 -0.125625 6.6825 -0.06375 8 0 C8 0.33 8 0.66 8 1 C6.35 1 4.7 1 3 1 C3 1.66 3 2.32 3 3 C2.01 3 1.02 3 0 3 C0.33 5.31 0.66 7.62 1 10 C-0.32 9.01 -1.64 8.02 -3 7 C-2.38722388 4.03824877 -1.74627478 2.61941217 0 0 Z " fill="#BFCFD9" transform="translate(210,88)"></path>
<path d="M0 0 C-1.59723021 3.19446042 -4.89976488 3.83269963 -8.0625 5.125 C-8.72572266 5.40214844 -9.38894531 5.67929687 -10.07226562 5.96484375 C-11.71236443 6.64920153 -13.35587283 7.3253775 -15 8 C-15 7.34 -15 6.68 -15 6 C-14.34 6 -13.68 6 -13 6 C-13 5.34 -13 4.68 -13 4 C-11.68 4 -10.36 4 -9 4 C-9 3.34 -9 2.68 -9 2 C-5.86501708 0.14223235 -3.62528568 -0.20140476 0 0 Z " fill="#B4BEC5" transform="translate(111,42)"></path>
<path d="M0 0 C0.66 0 1.32 0 2 0 C2 3.96 2 7.92 2 12 C0.68 11.67 -0.64 11.34 -2 11 C-1.34 11 -0.68 11 0 11 C-0.185625 9.741875 -0.37125 8.48375 -0.5625 7.1875 C-1.00732761 4.17255732 -0.99843846 2.99531539 0 0 Z " fill="#06233D" transform="translate(160,123)"></path>
<path d="M0 0 C1.5 1.25 1.5 1.25 3 3 C3 4.32 3 5.64 3 7 C0.29120665 8.35439668 -2.00933268 8.06501451 -5 8 C-4.0409375 7.13375 -4.0409375 7.13375 -3.0625 6.25 C-1.01776132 4.01937599 -0.41794801 2.92563609 0 0 Z " fill="#172229" transform="translate(251,121)"></path>
<path d="M0 0 C0 0.66 0 1.32 0 2 C-2.64 2.66 -5.28 3.32 -8 4 C-8.66 6.97 -9.32 9.94 -10 13 C-10.33 13 -10.66 13 -11 13 C-11.29380531 4.18584071 -11.29380531 4.18584071 -9 1 C-6.04335481 -0.4783226 -3.25770263 -0.06032783 0 0 Z " fill="#BBCAD6" transform="translate(160,16)"></path>
<path d="M0 0 C0.33 1.98 0.66 3.96 1 6 C-2.3 5.01 -5.6 4.02 -9 3 C-3 0 -3 0 0 0 Z " fill="#ABB8C6" transform="translate(227,76)"></path>
<path d="M0 0 C2.475 0.99 2.475 0.99 5 2 C4.34 3.32 3.68 4.64 3 6 C2.34 6 1.68 6 1 6 C0.67 6.66 0.34 7.32 0 8 C-0.38063221 5.6739143 -0.71269945 3.33944736 -1 1 C-0.67 0.67 -0.34 0.34 0 0 Z " fill="#161F1E" transform="translate(186,94)"></path>
<path d="M0 0 C1.9375 0.75 1.9375 0.75 4 2 C4.6875 3.875 4.6875 3.875 5 6 C5.185625 6.7425 5.37125 7.485 5.5625 8.25 C5.7790625 9.11625 5.7790625 9.11625 6 10 C5.01 10.495 5.01 10.495 4 11 C3.32591692 9.73308493 2.66099503 8.46129251 2 7.1875 C1.62875 6.47980469 1.2575 5.77210938 0.875 5.04296875 C0 3 0 3 0 0 Z " fill="#A0B3C2" transform="translate(57,207)"></path>
<path d="M0 0 C0.66 0.33 1.32 0.66 2 1 C-0.80804268 3.96404505 -3.18315774 6.44499019 -7 8 C-6.01347016 4.68167234 -5.31268497 3.23451373 -2.5 1.125 C-1.675 0.75375 -0.85 0.3825 0 0 Z " fill="#E2E8EF" transform="translate(250,204)"></path>
<path d="M0 0 C-0.33 1.32 -0.66 2.64 -1 4 C-0.34 4 0.32 4 1 4 C1 4.99 1 5.98 1 7 C0.34 7 -0.32 7 -1 7 C-1.33 7.66 -1.66 8.32 -2 9 C-3.33332095 6.3333581 -2.67102033 4.83319697 -2 2 C-3.98 2 -5.96 2 -8 2 C-8 1.67 -8 1.34 -8 1 C-2.25 0 -2.25 0 0 0 Z " fill="#D1DFEB" transform="translate(35,158)"></path>
<path d="M0 0 C0.33 0 0.66 0 1 0 C1 1.65 1 3.3 1 5 C-0.32 5 -1.64 5 -3 5 C-3 5.66 -3 6.32 -3 7 C-2.34 7.33 -1.68 7.66 -1 8 C-3.64 8 -6.28 8 -9 8 C-6.82615436 5.82615436 -4.68729526 4.47801239 -2 3 C-1.34 3 -0.68 3 0 3 C0 2.01 0 1.02 0 0 Z " fill="#BCC6D3" transform="translate(34,238)"></path>
<path d="M0 0 C0.33 0.99 0.66 1.98 1 3 C3.31 3 5.62 3 8 3 C6.35 4.65 4.7 6.3 3 8 C2.67 7.34 2.34 6.68 2 6 C1.34 6 0.68 6 0 6 C0 4.02 0 2.04 0 0 Z " fill="#B5C7D7" transform="translate(279,156)"></path>
<path d="M0 0 C2.31 0 4.62 0 7 0 C5.60667426 3.36720387 4.0210714 4.9859524 1 7 C0.67 4.69 0.34 2.38 0 0 Z " fill="#B8CFDE" transform="translate(279,72)"></path>
<path d="M0 0 C0.66 0 1.32 0 2 0 C0.66511872 3.59391114 -0.96022723 6.75490696 -3 10 C-3.66 9.67 -4.32 9.34 -5 9 C-3.7580393 5.56072421 -2.44259716 2.74792181 0 0 Z " fill="#B0BBC9" transform="translate(259,229)"></path>
<path d="M0 0 C1.32 0.33 2.64 0.66 4 1 C4.33 3.31 4.66 5.62 5 8 C3.68 7.67 2.36 7.34 1 7 C0.67 4.69 0.34 2.38 0 0 Z " fill="#20495A" transform="translate(203,88)"></path>
<path d="M0 0 C0.33 0.66 0.66 1.32 1 2 C-2.21451269 3.60725635 -5.43612536 3.05748185 -9 3 C-6.38997624 -0.48003168 -4.1689578 -0.27793052 0 0 Z " fill="#C3CBDA" transform="translate(37,254)"></path>
<path d="M0 0 C-1.485 2.475 -1.485 2.475 -3 5 C-3.33 4.34 -3.66 3.68 -4 3 C-4.99 3 -5.98 3 -7 3 C-6.67 2.01 -6.34 1.02 -6 0 C-3.42525708 -0.99667468 -2.51072708 -1.25536354 0 0 Z " fill="#C9DBE9" transform="translate(64,230)"></path>
<path d="M0 0 C3.3 0 6.6 0 10 0 C9.67 1.98 9.34 3.96 9 6 C8.443125 5.0409375 8.443125 5.0409375 7.875 4.0625 C5.41947207 1.36141928 3.55421195 1.31592995 0 1 C0 0.67 0 0.34 0 0 Z " fill="#1D242D" transform="translate(232,214)"></path>
<path d="M0 0 C0.625 1.875 0.625 1.875 1 4 C0.34 4.66 -0.32 5.32 -1 6 C-1.99 6 -2.98 6 -4 6 C-3.67 4.35 -3.34 2.7 -3 1 C-2.01 0.67 -1.02 0.34 0 0 Z " fill="#393A3C" transform="translate(135,123)"></path>
<path d="M0 0 C2.31 0.33 4.62 0.66 7 1 C6.01 1.33 5.02 1.66 4 2 C2.79117904 4.00016466 2.79117904 4.00016466 2 6 C1.34 5.34 0.68 4.68 0 4 C0 2.68 0 1.36 0 0 Z " fill="#10202F" transform="translate(216,116)"></path>
<path d="M0 0 C3.63 1.65 7.26 3.3 11 5 C5.86057616 6.28485596 4.62164416 5.22194431 0 3 C0 2.01 0 1.02 0 0 Z " fill="#9CAFC1" transform="translate(116,254)"></path>
<path d="M0 0 C1.65 0 3.3 0 5 0 C5.33 1.32 5.66 2.64 6 4 C4.35 3.67 2.7 3.34 1 3 C0.67 2.01 0.34 1.02 0 0 Z " fill="#4E606B" transform="translate(254,148)"></path>
<path d="M0 0 C1.32 0 2.64 0 4 0 C4 0.66 4 1.32 4 2 C4.66 2 5.32 2 6 2 C6 3.98 6 5.96 6 8 C3.87961365 5.38485683 1.86908256 2.80362384 0 0 Z " fill="#131A2B" transform="translate(145,72)"></path>
<path d="M0 0 C5.75 0.75 5.75 0.75 8 3 C5.03 3 2.06 3 -1 3 C-0.67 2.01 -0.34 1.02 0 0 Z " fill="#D1D8E7" transform="translate(269,69)"></path>
<path d="M0 0 C-0.8125 1.9375 -0.8125 1.9375 -2 4 C-2.99 4.33 -3.98 4.66 -5 5 C-5 4.34 -5 3.68 -5 3 C-6.65 2.67 -8.3 2.34 -10 2 C-10 1.67 -10 1.34 -10 1 C-3.375 0 -3.375 0 0 0 Z " fill="#9BAAB4" transform="translate(301,60)"></path>
<path d="M0 0 C0.99 0.33 1.98 0.66 3 1 C2.34 3.64 1.68 6.28 1 9 C1.66 9.33 2.32 9.66 3 10 C2.01 10 1.02 10 0 10 C0 6.7 0 3.4 0 0 Z " fill="#BEC7D8" transform="translate(162,280)"></path>
<path d="M0 0 C0.66 0.33 1.32 0.66 2 1 C-1.5 5.875 -1.5 5.875 -6 7 C-4.02 4.69 -2.04 2.38 0 0 Z " fill="#B3BFCA" transform="translate(252,239)"></path>
<path d="M0 0 C0 1.65 0 3.3 0 5 C-0.99 5.33 -1.98 5.66 -3 6 C-3.66 4.68 -4.32 3.36 -5 2 C-2 0 -2 0 0 0 Z " fill="#17232A" transform="translate(241,169)"></path>
<path d="M0 0 C0.33 0.66 0.66 1.32 1 2 C0.67 2.66 0.34 3.32 0 4 C-3.63 4 -7.26 4 -11 4 C-7.31265242 1.54176828 -4.30300029 0.98757384 0 0 Z " fill="#212B37" transform="translate(279,163)"></path>
<path d="M0 0 C0 4.03223106 -1.64129026 5.80880447 -4 9 C-4.99 9.495 -4.99 9.495 -6 10 C-4.6302836 6.00499382 -2.74277578 3.19990508 0 0 Z " fill="#DEE2E4" transform="translate(118,74)"></path>
<path d="M0 0 C2.64 0.33 5.28 0.66 8 1 C7.67 1.99 7.34 2.98 7 4 C5.35 4 3.7 4 2 4 C1.34 2.68 0.68 1.36 0 0 Z " fill="#BFCEDC" transform="translate(289,61)"></path>
<path d="M0 0 C1.485 0.99 1.485 0.99 3 2 C3.1875 5.625 3.1875 5.625 3 9 C2.01 9 1.02 9 0 9 C0 6.03 0 3.06 0 0 Z " fill="#8DA3B8" transform="translate(261,54)"></path>
<path d="M0 0 C1.98 0 3.96 0 6 0 C4.625 1.5 4.625 1.5 3 3 C2.34 3 1.68 3 1 3 C1 4.98 1 6.96 1 9 C0.67 9 0.34 9 0 9 C0 6.03 0 3.06 0 0 Z " fill="#9FACBD" transform="translate(161,44)"></path>
<path d="M0 0 C0.66 0 1.32 0 2 0 C1.3125 2.4375 1.3125 2.4375 0 5 C-2.625 5.8125 -2.625 5.8125 -5 6 C-4.34 5.01 -3.68 4.02 -3 3 C-2.34 3 -1.68 3 -1 3 C-0.67 2.01 -0.34 1.02 0 0 Z " fill="#BEC6CD" transform="translate(256,206)"></path>
<path d="M0 0 C0.33 0 0.66 0 1 0 C1 3.96 1 7.92 1 12 C0.01 12 -0.98 12 -2 12 C-1.34 8.04 -0.68 4.08 0 0 Z " fill="#B8CDDF" transform="translate(71,100)"></path>
<path d="M0 0 C1.65 0.33 3.3 0.66 5 1 C3.68 1.99 2.36 2.98 1 4 C0.34 3.67 -0.32 3.34 -1 3 C-0.67 2.01 -0.34 1.02 0 0 Z M-3 3 C-2.34 3.33 -1.68 3.66 -1 4 C-1.99 4 -2.98 4 -4 4 C-3.67 3.67 -3.34 3.34 -3 3 Z " fill="#C5CED5" transform="translate(259,78)"></path>
<path d="M0 0 C0.33 0 0.66 0 1 0 C1 2.64 1 5.28 1 8 C1.66 8 2.32 8 3 8 C3 8.99 3 9.98 3 11 C2.01 11.33 1.02 11.66 0 12 C0 8.04 0 4.08 0 0 Z " fill="#ACB8C5" transform="translate(272,41)"></path>
<path d="M0 0 C0 1.65 0 3.3 0 5 C-1.65 4.67 -3.3 4.34 -5 4 C-4.67 3.01 -4.34 2.02 -4 1 C-1 0 -1 0 0 0 Z " fill="#C3D4E7" transform="translate(71,243)"></path>
<path d="M0 0 C0.66 0.66 1.32 1.32 2 2 C-0.31 3.32 -2.62 4.64 -5 6 C-4.67 4.35 -4.34 2.7 -4 1 C-2.125 0.375 -2.125 0.375 0 0 Z " fill="#A6BFCE" transform="translate(70,111)"></path>
<path d="M0 0 C1.98 0 3.96 0 6 0 C6 1.65 6 3.3 6 5 C3.98079663 3.69593116 1.98075027 2.36176581 0 1 C0 0.67 0 0.34 0 0 Z " fill="#121A27" transform="translate(223,64)"></path>
</svg><style>@media (prefers-color-scheme: light) { :root { filter: none; } }
</style></svg>