<?xml version="1.0" standalone="no"?>
<!DOCTYPE svg PUBLIC "-//W3C//DTD SVG 20010904//EN"
 "http://www.w3.org/TR/2001/REC-SVG-20010904/DTD/svg10.dtd">
<svg version="1.0" xmlns="http://www.w3.org/2000/svg"
 width="312.000000pt" height="312.000000pt" viewBox="0 0 312.000000 312.000000"
 preserveAspectRatio="xMidYMid meet">
<metadata>
Created by potrace 1.14, written by Peter Selinger 2001-2017
</metadata>
<g transform="translate(0.000000,312.000000) scale(0.100000,-0.100000)"
fill="#000000" stroke="none">
<path d="M1528 2929 c-15 -8 -18 -24 -18 -84 l0 -75 -52 0 c-116 -1 -307 -54
-449 -125 -158 -79 -352 -241 -445 -371 -69 -98 -160 -280 -188 -378 -26 -87
-33 -141 -18 -134 106 47 112 51 127 106 45 155 167 364 271 466 164 162 389
283 617 331 38 8 84 15 102 15 33 0 34 -1 37 -47 l3 -48 48 -3 47 -3 0 52 0
51 58 -6 c265 -31 486 -123 640 -268 l53 -51 35 34 c61 59 45 82 -126 189
-181 113 -336 168 -542 192 l-108 12 0 62 c0 54 -3 65 -22 78 -26 18 -46 20
-70 5z"/>
<path d="M2775 2805 c-23 -22 -25 -32 -25 -113 0 -71 -3 -91 -15 -96 -12 -4
-15 6 -15 63 0 73 -11 88 -50 76 -27 -9 -33 -31 -36 -140 -3 -123 -24 -147
-24 -27 0 72 -2 80 -21 85 -13 3 -28 -2 -40 -14 -19 -19 -22 -43 -23 -177 -1
-42 -4 -46 -96 -127 l-94 -83 -37 29 c-45 35 -108 59 -159 59 -32 0 -39 4 -44
25 -11 41 -111 140 -167 165 -119 50 -220 34 -313 -51 -48 -44 -55 -47 -61
-30 -3 10 -31 36 -62 58 -51 35 -61 38 -137 41 -59 3 -93 -1 -120 -12 -61 -25
-152 -97 -186 -147 -28 -42 -36 -47 -80 -52 -67 -8 -119 -37 -172 -96 -50 -56
-83 -140 -76 -198 4 -33 1 -38 -42 -69 -45 -32 -90 -96 -90 -128 0 -12 10 -16
46 -16 39 0 53 6 85 35 45 41 56 42 109 15 22 -11 50 -20 64 -20 28 0 96 54
96 76 0 19 -33 34 -74 34 -41 0 -72 25 -82 65 -8 33 22 112 55 146 27 26 117
66 127 56 5 -5 12 -66 14 -119 0 -30 49 -77 83 -80 31 -3 32 -5 35 -53 1 -27
5 -60 7 -72 8 -33 71 -70 132 -76 45 -5 54 -3 63 13 13 25 13 33 -2 27 -26 -9
-70 25 -90 69 l-19 45 37 75 c35 72 36 75 19 94 -23 26 -28 25 -73 -5 -68 -46
-112 -24 -112 59 0 64 20 107 77 164 83 82 175 91 253 25 55 -47 66 -74 74
-171 l7 -83 -48 -21 c-61 -26 -58 -22 -43 -57 9 -23 21 -32 45 -37 28 -5 33
-11 39 -42 3 -21 6 -74 6 -119 0 -45 3 -84 8 -86 4 -3 28 -8 53 -12 l45 -7 0
128 -1 129 42 20 c69 33 124 135 73 135 -10 0 -35 -7 -54 -16 -56 -27 -66 -16
-66 69 0 66 3 78 29 113 37 52 59 70 105 89 60 25 136 6 197 -52 40 -38 52
-58 74 -126 l26 -80 -28 -23 c-45 -37 -59 -38 -108 -4 -25 17 -50 28 -55 25
-19 -12 -10 -52 20 -90 22 -28 30 -48 30 -78 0 -35 -6 -46 -46 -84 -26 -24
-53 -43 -60 -43 -19 0 -18 -34 1 -50 11 -9 25 -8 64 5 89 29 122 66 131 150 4
42 9 51 27 53 27 4 83 66 83 92 0 11 -12 25 -26 33 l-26 13 27 32 c51 61 143
29 201 -68 44 -74 44 -109 -1 -149 -42 -37 -76 -47 -104 -31 -12 6 -22 7 -22
3 -6 -43 27 -88 72 -98 20 -5 43 0 72 14 57 28 61 27 118 -14 43 -31 54 -34
88 -29 38 6 39 7 30 33 -16 40 -58 91 -95 113 -28 16 -32 23 -24 38 15 28 12
60 -10 108 l-19 42 27 17 c26 16 78 60 150 125 l34 30 56 -15 c31 -8 65 -18
74 -22 12 -4 26 2 43 19 40 40 30 59 -38 70 -31 5 -57 13 -57 17 0 18 25 20
86 4 74 -18 126 -9 145 27 14 27 8 31 -64 43 -67 11 -80 31 -19 28 20 0 63 -2
95 -3 45 -2 64 2 85 17 50 37 37 61 -39 72 -30 4 -65 13 -78 20 -23 13 -24 16
-18 101 4 59 2 91 -6 99 -19 19 -66 13 -92 -14z"/>
<path d="M2543 2213 c-13 -8 -23 -22 -23 -30 0 -9 22 -57 49 -107 27 -50 54
-109 61 -131 25 -82 52 -135 69 -135 9 0 29 -7 45 -15 43 -23 48 -19 41 33
-10 71 -42 166 -87 256 -71 143 -101 168 -155 129z"/>
<path d="M717 1771 c-92 -10 -188 -24 -212 -31 l-44 -12 -3 -80 -3 -80 40 -27
c50 -33 70 -73 88 -184 17 -95 57 -192 103 -246 52 -62 195 -111 323 -111 141
0 249 37 312 107 51 57 115 187 134 278 23 103 52 135 120 135 80 0 92 -13
124 -132 11 -42 36 -109 54 -149 85 -186 299 -277 528 -224 102 23 148 45 191
93 54 60 73 104 96 224 11 59 28 123 38 143 19 41 58 75 85 75 17 0 19 9 19
80 0 72 -2 81 -22 94 -30 18 -111 32 -290 51 -268 27 -384 20 -623 -41 -162
-42 -244 -43 -355 -5 -166 58 -422 73 -703 42z m515 -126 c119 -25 149 -66
129 -181 -19 -107 -70 -223 -121 -276 -60 -62 -100 -72 -262 -66 -117 4 -130
7 -167 31 -50 33 -86 93 -105 177 -23 96 -21 177 7 230 42 84 84 97 307 99 91
0 170 -5 212 -14z m1079 5 c69 -13 114 -45 141 -99 18 -36 20 -54 15 -115 -14
-157 -58 -254 -132 -291 -79 -39 -301 -30 -371 15 -94 62 -187 296 -160 404 8
33 52 63 117 80 64 17 310 21 390 6z"/>
<path d="M1178 1530 c-9 -6 -47 -16 -85 -24 -65 -14 -71 -18 -128 -80 -75 -83
-97 -86 -162 -22 -51 51 -58 45 -51 -35 6 -60 22 -78 85 -100 33 -11 52 -25
63 -45 29 -50 51 -38 82 45 36 99 64 126 140 140 89 15 167 81 137 117 -13 16
-56 18 -81 4z"/>
<path d="M1910 1501 c0 -55 61 -91 158 -91 40 0 44 -3 72 -47 23 -36 29 -55
24 -76 -13 -63 58 -105 91 -53 9 14 34 29 61 36 33 9 52 22 65 43 19 32 35
104 25 114 -3 4 -23 -7 -44 -24 -42 -34 -75 -53 -92 -53 -6 0 -33 21 -60 46
-37 35 -50 54 -50 75 0 32 -5 34 -110 44 -36 3 -82 8 -102 11 -37 6 -38 5 -38
-25z"/>
<path d="M143 1630 c-18 -7 -23 -17 -23 -43 0 -54 17 -61 127 -54 106 6 115
12 111 67 l-3 35 -95 2 c-52 1 -105 -2 -117 -7z"/>
<path d="M2797 1633 c-11 -10 -8 -62 3 -84 9 -17 22 -19 104 -19 71 0 97 4
106 15 16 19 5 81 -16 89 -21 8 -189 8 -197 -1z"/>
<path d="M2740 1472 c-30 -9 -58 -20 -61 -25 -4 -5 -10 -43 -13 -86 -13 -137
-34 -209 -104 -341 -86 -165 -127 -224 -204 -295 -106 -99 -306 -216 -433
-255 -72 -22 -235 -50 -291 -50 -23 0 -33 5 -37 20 -7 26 -43 26 -59 0 -17
-26 -81 -26 -203 -1 -174 37 -319 102 -456 207 -31 24 -73 51 -93 60 -42 20
-43 26 -15 65 25 36 42 36 86 3 55 -42 101 -57 155 -50 41 6 49 4 54 -11 27
-83 58 -120 138 -160 103 -52 241 -39 323 32 l42 36 65 -45 c73 -50 114 -61
189 -53 99 12 212 91 238 167 9 25 15 28 67 32 117 8 220 81 273 193 l29 60
-39 3 c-67 5 -102 -9 -115 -47 -16 -50 -71 -89 -143 -103 -55 -10 -65 -9 -107
10 -47 22 -76 28 -76 15 0 -5 7 -29 17 -55 16 -47 16 -47 -10 -87 -34 -52 -78
-74 -147 -75 -65 -1 -108 21 -154 77 -30 37 -31 43 -34 148 l-4 110 38 -26
c20 -14 44 -25 53 -25 9 -1 33 -7 54 -15 68 -24 177 22 150 63 -14 23 -95 53
-110 40 -18 -15 -79 2 -123 33 -55 40 -64 81 -56 240 6 109 5 129 -9 143 -33
32 -81 12 -90 -37 -4 -19 -7 -95 -8 -169 -2 -129 -3 -138 -26 -162 -29 -31
-83 -50 -121 -42 -39 7 -50 -25 -23 -63 25 -32 87 -40 132 -16 l31 16 0 -114
c0 -111 0 -113 -30 -145 -80 -87 -232 -80 -290 13 l-23 38 21 41 c12 23 22 49
22 58 0 28 -42 32 -84 7 -29 -17 -48 -21 -94 -17 -76 6 -123 30 -160 82 -25
35 -41 46 -79 56 -26 7 -56 14 -65 17 -25 6 -24 -46 2 -96 21 -42 18 -51 -16
-51 -13 0 -50 -22 -84 -51 l-61 -50 -87 6 c-80 6 -89 5 -110 -15 -12 -12 -20
-25 -17 -30 3 -5 29 -16 58 -25 68 -23 85 -39 32 -31 -140 20 -151 20 -174 -5
-35 -38 -24 -54 42 -57 31 -2 57 -7 57 -12 0 -16 -41 -22 -108 -16 -71 7 -105
-3 -126 -36 -19 -31 5 -52 70 -63 l59 -10 0 -95 0 -95 36 -3 c53 -4 69 20 78
117 10 114 31 131 31 25 0 -45 3 -83 6 -87 12 -12 65 17 79 44 8 15 15 52 15
81 0 29 3 70 7 91 9 58 23 25 23 -56 0 -66 1 -68 23 -62 46 15 67 45 68 99 1
96 14 148 44 174 l29 24 22 -44 c13 -25 47 -67 77 -94 53 -48 201 -132 306
-174 75 -29 269 -70 334 -70 l54 0 6 -52 c7 -56 25 -78 62 -78 34 0 55 31 55
81 l0 44 59 2 c33 1 113 11 178 24 103 19 135 31 256 91 147 74 299 181 379
266 98 104 199 282 241 422 39 130 83 374 66 369 -2 -1 -29 -8 -59 -17z"/>
<path d="M345 1434 c2 -22 10 -75 15 -119 16 -113 45 -216 92 -320 49 -109 70
-140 110 -161 24 -12 36 -13 54 -5 33 15 31 48 -6 122 -69 136 -129 343 -130
449 0 54 -12 63 -80 68 l-61 4 6 -38z"/>
</g>
</svg>
